<svg width="210" height="210" viewBox="0 0 210 210" fill="none" xmlns="http://www.w3.org/2000/svg">
<rect width="210" height="210" rx="20" fill="#640832"/>
<path d="M20.3317 41.22H24.1397C25.1317 41.22 25.9424 41.3 26.5717 41.46C27.201 41.62 27.681 41.9027 28.0117 42.308C28.3424 42.7027 28.5077 43.2573 28.5077 43.972C28.5077 44.74 28.289 45.3213 27.8517 45.716C27.4144 46.1 26.8704 46.3187 26.2197 46.372V46.756C28.2997 46.8093 29.3397 47.7213 29.3397 49.492C29.3397 50.5907 28.9557 51.3693 28.1877 51.828C27.4197 52.276 26.2944 52.5 24.8117 52.5H20.3317V41.22ZM24.8597 51.284C25.553 51.284 26.113 51.236 26.5397 51.14C26.9664 51.0333 27.297 50.836 27.5317 50.548C27.7664 50.2493 27.8837 49.8173 27.8837 49.252C27.8837 48.484 27.633 47.9507 27.1317 47.652C26.6304 47.3533 25.873 47.204 24.8597 47.204H21.7877V51.284H24.8597ZM24.2037 46.052C24.8544 46.052 25.3824 46.0093 25.7877 45.924C26.193 45.828 26.5077 45.652 26.7317 45.396C26.9557 45.1293 27.0677 44.74 27.0677 44.228C27.0677 43.684 26.9557 43.284 26.7317 43.028C26.5184 42.7613 26.2144 42.5907 25.8197 42.516C25.4357 42.4413 24.897 42.404 24.2037 42.404H21.7877V46.052H24.2037ZM31.0578 48.42C31.0578 47.1507 31.4045 46.164 32.0978 45.46C32.7911 44.7453 33.7138 44.388 34.8658 44.388C36.0605 44.388 37.0045 44.7347 37.6978 45.428C38.4018 46.1107 38.7538 47.06 38.7538 48.276V48.788H32.4338C32.4551 49.5987 32.6791 50.26 33.1058 50.772C33.5431 51.2733 34.1565 51.524 34.9458 51.524C35.6071 51.524 36.1405 51.364 36.5458 51.044C36.9618 50.724 37.2391 50.2813 37.3778 49.716H38.7858C38.6045 50.5587 38.2045 51.2627 37.5858 51.828C36.9671 52.3827 36.0925 52.66 34.9618 52.66C34.1298 52.66 33.4205 52.4733 32.8338 52.1C32.2471 51.7267 31.8045 51.22 31.5058 50.58C31.2071 49.94 31.0578 49.22 31.0578 48.42ZM37.3618 47.78C37.3191 47.0653 37.0685 46.5107 36.6098 46.116C36.1618 45.7107 35.5805 45.508 34.8658 45.508C34.1938 45.508 33.6338 45.7107 33.1858 46.116C32.7485 46.5213 32.5031 47.076 32.4498 47.78H37.3618ZM47.7623 52.5H46.3383V45.764H43.2983C43.2876 47.4173 43.2183 48.7027 43.0903 49.62C42.9623 50.5373 42.685 51.2467 42.2583 51.748C41.8423 52.2493 41.2076 52.5 40.3543 52.5V51.284C40.845 51.284 41.197 51.0493 41.4103 50.58C41.6236 50.1 41.7516 49.4333 41.7943 48.58C41.8476 47.7267 41.8743 46.3827 41.8743 44.548H47.7623V52.5ZM56.2157 52.5V45.748L56.4557 44.932H56.0557L52.5837 52.5H49.7997V44.548H51.1917V51.268L50.9517 52.1H51.3517L54.8237 44.548H57.5917V52.5H56.2157ZM61.0518 44.548V47.908H61.7558L63.8198 45.14C64.1078 44.7453 64.5131 44.548 65.0358 44.548H66.2998V45.764H65.0198L63.0998 48.308L66.4758 52.5H64.8598L62.0598 49.124H61.0518V52.5H59.6278V44.548H61.0518ZM74.4188 52.5V45.748L74.6588 44.932H74.2588L70.7868 52.5H68.0028V44.548H69.3948V51.268L69.1548 52.1H69.5548L73.0268 44.548H75.7948V52.5H74.4188ZM84.2469 52.5V45.748L84.4869 44.932H84.0869L80.6149 52.5H77.8309V44.548H79.2229V51.268L78.9829 52.1H79.3829L82.8549 44.548H85.6229V52.5H84.2469ZM81.7509 43.508C80.9616 43.508 80.3376 43.252 79.8789 42.74C79.4309 42.2173 79.2069 41.54 79.2069 40.708H80.3589C80.3589 41.3053 80.4656 41.7373 80.6789 42.004C80.9029 42.2707 81.2603 42.404 81.7509 42.404C82.2416 42.404 82.5936 42.2707 82.8069 42.004C83.0309 41.7373 83.1429 41.3053 83.1429 40.708H84.2949C84.2949 41.54 84.0656 42.2173 83.6069 42.74C83.1589 43.252 82.5403 43.508 81.7509 43.508ZM100.088 44.548V45.764H97.0802V52.5H95.6722V45.764H92.6642V44.548H100.088ZM101.12 50.292C101.12 49.6307 101.334 49.1027 101.76 48.708C102.198 48.3027 102.87 48.0573 103.776 47.972L106.896 47.668C106.864 46.9427 106.678 46.4093 106.336 46.068C105.995 45.716 105.472 45.54 104.768 45.54C104.182 45.54 103.707 45.6893 103.344 45.988C102.982 46.2867 102.768 46.7507 102.704 47.38H101.296C101.382 46.4627 101.723 45.7373 102.32 45.204C102.928 44.66 103.739 44.388 104.752 44.388C105.894 44.388 106.774 44.708 107.392 45.348C108.011 45.988 108.32 46.8413 108.32 47.908V51.284H109.488V52.5H108.032C107.734 52.5 107.499 52.4147 107.328 52.244C107.158 52.0733 107.072 51.8387 107.072 51.54V51.156L107.296 50.308H106.896C106.726 51.0013 106.39 51.5667 105.888 52.004C105.398 52.4413 104.704 52.66 103.808 52.66C102.784 52.66 102.08 52.4147 101.696 51.924C101.312 51.4333 101.12 50.8893 101.12 50.292ZM102.528 50.116C102.528 50.564 102.662 50.9053 102.928 51.14C103.195 51.3747 103.563 51.492 104.032 51.492C104.598 51.492 105.094 51.3693 105.52 51.124C105.958 50.8787 106.294 50.5427 106.528 50.116C106.774 49.6893 106.896 49.2093 106.896 48.676L104.016 48.98C103.504 49.0333 103.126 49.1453 102.88 49.316C102.646 49.476 102.528 49.7427 102.528 50.116ZM115.886 48.516C115.886 47.7373 116.046 47.0387 116.366 46.42C116.697 45.7907 117.171 45.2947 117.79 44.932C118.409 44.5693 119.134 44.388 119.966 44.388C120.542 44.388 121.102 44.5 121.646 44.724C122.201 44.948 122.67 45.3 123.054 45.78C123.438 46.26 123.662 46.8627 123.726 47.588H122.302C122.195 46.8947 121.934 46.3933 121.518 46.084C121.102 45.764 120.585 45.604 119.966 45.604C119.102 45.604 118.441 45.8813 117.982 46.436C117.523 46.98 117.294 47.6733 117.294 48.516C117.294 49.3693 117.523 50.0733 117.982 50.628C118.441 51.172 119.102 51.444 119.966 51.444C120.585 51.444 121.102 51.2893 121.518 50.98C121.934 50.66 122.195 50.1533 122.302 49.46H123.726C123.662 50.1853 123.438 50.788 123.054 51.268C122.67 51.748 122.201 52.1 121.646 52.324C121.102 52.548 120.542 52.66 119.966 52.66C119.134 52.66 118.409 52.4787 117.79 52.116C117.171 51.7533 116.697 51.2627 116.366 50.644C116.046 50.0147 115.886 49.3053 115.886 48.516ZM125.323 48.42C125.323 47.1507 125.67 46.164 126.363 45.46C127.057 44.7453 127.979 44.388 129.131 44.388C130.326 44.388 131.27 44.7347 131.963 45.428C132.667 46.1107 133.019 47.06 133.019 48.276V48.788H126.699C126.721 49.5987 126.945 50.26 127.371 50.772C127.809 51.2733 128.422 51.524 129.211 51.524C129.873 51.524 130.406 51.364 130.811 51.044C131.227 50.724 131.505 50.2813 131.643 49.716H133.051C132.87 50.5587 132.47 51.2627 131.851 51.828C131.233 52.3827 130.358 52.66 129.227 52.66C128.395 52.66 127.686 52.4733 127.099 52.1C126.513 51.7267 126.07 51.22 125.771 50.58C125.473 49.94 125.323 49.22 125.323 48.42ZM131.627 47.78C131.585 47.0653 131.334 46.5107 130.875 46.116C130.427 45.7107 129.846 45.508 129.131 45.508C128.459 45.508 127.899 45.7107 127.451 46.116C127.014 46.5213 126.769 47.076 126.715 47.78H131.627ZM134.956 44.548H136.38V45.652L136.14 46.596H136.54C136.721 45.9347 137.084 45.4013 137.628 44.996C138.172 44.5907 138.876 44.388 139.74 44.388C140.497 44.388 141.159 44.5693 141.724 44.932C142.3 45.284 142.743 45.7747 143.052 46.404C143.361 47.0333 143.516 47.7427 143.516 48.532C143.516 49.3107 143.361 50.0147 143.052 50.644C142.743 51.2733 142.3 51.7693 141.724 52.132C141.159 52.484 140.497 52.66 139.74 52.66C138.876 52.66 138.172 52.4573 137.628 52.052C137.084 51.636 136.721 51.0973 136.54 50.436H136.14L136.38 51.396V55.604H134.956V44.548ZM136.38 48.532C136.38 49.5027 136.647 50.2333 137.18 50.724C137.724 51.204 138.428 51.444 139.292 51.444C140.145 51.444 140.828 51.204 141.34 50.724C141.852 50.2333 142.108 49.5027 142.108 48.532C142.108 47.5507 141.852 46.82 141.34 46.34C140.828 45.8493 140.145 45.604 139.292 45.604C138.428 45.604 137.724 45.8493 137.18 46.34C136.647 46.82 136.38 47.5507 136.38 48.532ZM145.183 48.42C145.183 47.1507 145.529 46.164 146.223 45.46C146.916 44.7453 147.839 44.388 148.991 44.388C150.185 44.388 151.129 44.7347 151.823 45.428C152.527 46.1107 152.879 47.06 152.879 48.276V48.788H146.559C146.58 49.5987 146.804 50.26 147.231 50.772C147.668 51.2733 148.281 51.524 149.071 51.524C149.732 51.524 150.265 51.364 150.671 51.044C151.087 50.724 151.364 50.2813 151.503 49.716H152.911C152.729 50.5587 152.329 51.2627 151.711 51.828C151.092 52.3827 150.217 52.66 149.087 52.66C148.255 52.66 147.545 52.4733 146.959 52.1C146.372 51.7267 145.929 51.22 145.631 50.58C145.332 49.94 145.183 49.22 145.183 48.42ZM151.487 47.78C151.444 47.0653 151.193 46.5107 150.735 46.116C150.287 45.7107 149.705 45.508 148.991 45.508C148.319 45.508 147.759 45.7107 147.311 46.116C146.873 46.5213 146.628 47.076 146.575 47.78H151.487ZM155.46 51.284C155.886 50.4413 156.185 49.5027 156.356 48.468C156.537 47.4227 156.628 46.116 156.628 44.548H162.196V51.284H162.836C163.156 51.284 163.401 51.3693 163.572 51.54C163.742 51.7107 163.828 51.956 163.828 52.276V54.612H162.42V52.5H155.396V54.612H153.988V52.276C153.988 51.956 154.073 51.7107 154.244 51.54C154.414 51.3693 154.66 51.284 154.98 51.284H155.46ZM160.788 51.284V45.732H158.004C157.961 46.9587 157.849 48.0093 157.668 48.884C157.486 49.748 157.209 50.548 156.836 51.284H160.788ZM166.896 44.548V47.908H171.312V44.548H172.72V52.5H171.312V49.124H166.896V52.5H165.472V44.548H166.896ZM174.512 51.284H176.72V45.764H175.072V44.548H177.136C177.733 44.548 178.032 44.8573 178.032 45.476V51.284H180.256V52.5H174.512V51.284ZM177.2 43.188C176.88 43.188 176.613 43.0867 176.4 42.884C176.186 42.6813 176.08 42.4253 176.08 42.116C176.08 41.8067 176.186 41.5507 176.4 41.348C176.613 41.1453 176.88 41.044 177.2 41.044C177.52 41.044 177.792 41.1453 178.016 41.348C178.24 41.5507 178.352 41.8067 178.352 42.116C178.352 42.4253 178.24 42.6813 178.016 42.884C177.792 43.0867 177.52 43.188 177.2 43.188ZM188.309 52.5V45.748L188.549 44.932H188.149L184.677 52.5H181.893V44.548H183.285V51.268L183.045 52.1H183.445L186.917 44.548H189.685V52.5H188.309ZM185.813 43.508C185.024 43.508 184.4 43.252 183.941 42.74C183.493 42.2173 183.269 41.54 183.269 40.708H184.421C184.421 41.3053 184.528 41.7373 184.741 42.004C184.965 42.2707 185.323 42.404 185.813 42.404C186.304 42.404 186.656 42.2707 186.869 42.004C187.093 41.7373 187.205 41.3053 187.205 40.708H188.357C188.357 41.54 188.128 42.2173 187.669 42.74C187.221 43.252 186.603 43.508 185.813 43.508ZM34.1326 62.548L30.6606 70.388V72.708C30.6606 73.316 30.3619 73.62 29.7646 73.62H26.3886V72.372H29.2366V70.388L25.7486 62.548H27.2846L29.7486 68.516V69.188H30.1486V68.516L32.5806 62.548H34.1326ZM36.9424 62.548V65.908H37.6464L39.7104 63.14C39.9984 62.7453 40.4038 62.548 40.9264 62.548H42.1904V63.764H40.9104L38.9904 66.308L42.3664 70.5H40.7504L37.9504 67.124H36.9424V70.5H35.5184V62.548H36.9424ZM43.8934 62.548H45.3174V63.652L45.0774 64.596H45.4774C45.6588 63.9347 46.0214 63.4013 46.5654 62.996C47.1094 62.5907 47.8134 62.388 48.6774 62.388C49.4348 62.388 50.0961 62.5693 50.6614 62.932C51.2374 63.284 51.6801 63.7747 51.9894 64.404C52.2988 65.0333 52.4534 65.7427 52.4534 66.532C52.4534 67.3107 52.2988 68.0147 51.9894 68.644C51.6801 69.2733 51.2374 69.7693 50.6614 70.132C50.0961 70.484 49.4348 70.66 48.6774 70.66C47.8134 70.66 47.1094 70.4573 46.5654 70.052C46.0214 69.636 45.6588 69.0973 45.4774 68.436H45.0774L45.3174 69.396V73.604H43.8934V62.548ZM45.3174 66.532C45.3174 67.5027 45.5841 68.2333 46.1174 68.724C46.6614 69.204 47.3654 69.444 48.2294 69.444C49.0828 69.444 49.7654 69.204 50.2774 68.724C50.7894 68.2333 51.0454 67.5027 51.0454 66.532C51.0454 65.5507 50.7894 64.82 50.2774 64.34C49.7654 63.8493 49.0828 63.604 48.2294 63.604C47.3654 63.604 46.6614 63.8493 46.1174 64.34C45.5841 64.82 45.3174 65.5507 45.3174 66.532ZM54.0578 68.292C54.0578 67.6307 54.2711 67.1027 54.6978 66.708C55.1351 66.3027 55.8071 66.0573 56.7138 65.972L59.8338 65.668C59.8018 64.9427 59.6151 64.4093 59.2738 64.068C58.9325 63.716 58.4098 63.54 57.7058 63.54C57.1191 63.54 56.6445 63.6893 56.2818 63.988C55.9191 64.2867 55.7058 64.7507 55.6418 65.38H54.2338C54.3191 64.4627 54.6605 63.7373 55.2578 63.204C55.8658 62.66 56.6765 62.388 57.6898 62.388C58.8311 62.388 59.7111 62.708 60.3298 63.348C60.9485 63.988 61.2578 64.8413 61.2578 65.908V69.284H62.4258V70.5H60.9698C60.6711 70.5 60.4365 70.4147 60.2658 70.244C60.0951 70.0733 60.0098 69.8387 60.0098 69.54V69.156L60.2338 68.308H59.8338C59.6631 69.0013 59.3271 69.5667 58.8258 70.004C58.3351 70.4413 57.6418 70.66 56.7458 70.66C55.7218 70.66 55.0178 70.4147 54.6338 69.924C54.2498 69.4333 54.0578 68.8893 54.0578 68.292ZM55.4658 68.116C55.4658 68.564 55.5991 68.9053 55.8658 69.14C56.1325 69.3747 56.5005 69.492 56.9698 69.492C57.5351 69.492 58.0311 69.3693 58.4578 69.124C58.8951 68.8787 59.2311 68.5427 59.4658 68.116C59.7111 67.6893 59.8338 67.2093 59.8338 66.676L56.9538 66.98C56.4418 67.0333 56.0631 67.1453 55.8178 67.316C55.5831 67.476 55.4658 67.7427 55.4658 68.116ZM63.6211 69.284H65.8291V63.764H64.1811V62.548H66.2451C66.8424 62.548 67.1411 62.8573 67.1411 63.476V69.284H69.3651V70.5H63.6211V69.284ZM64.6611 61.3C64.3304 61.3 64.0531 61.1933 63.8291 60.98C63.6157 60.7667 63.5091 60.5 63.5091 60.18C63.5091 59.86 63.6157 59.5933 63.8291 59.38C64.0531 59.1667 64.3304 59.06 64.6611 59.06C65.0024 59.06 65.2851 59.1667 65.5091 59.38C65.7331 59.5933 65.8451 59.86 65.8451 60.18C65.8451 60.5 65.7331 60.7667 65.5091 60.98C65.2851 61.1933 65.0024 61.3 64.6611 61.3ZM66.8051 60.18C66.8051 59.86 66.9171 59.5933 67.1411 59.38C67.3651 59.1667 67.6424 59.06 67.9731 59.06C68.3037 59.06 68.5811 59.1667 68.8051 59.38C69.0397 59.5933 69.1571 59.86 69.1571 60.18C69.1571 60.5 69.0397 60.7667 68.8051 60.98C68.5811 61.1933 68.3037 61.3 67.9731 61.3C67.6424 61.3 67.3651 61.1933 67.1411 60.98C66.9171 60.7667 66.8051 60.5 66.8051 60.18ZM72.4268 62.548V65.908H76.8428V62.548H78.2508V70.5H76.8428V67.124H72.4268V70.5H71.0028V62.548H72.4268ZM80.1828 66.516C80.1828 65.7373 80.3428 65.0387 80.6628 64.42C80.9935 63.7907 81.4681 63.2947 82.0868 62.932C82.7055 62.5693 83.4308 62.388 84.2628 62.388C84.8388 62.388 85.3988 62.5 85.9428 62.724C86.4975 62.948 86.9668 63.3 87.3508 63.78C87.7348 64.26 87.9588 64.8627 88.0228 65.588H86.5988C86.4921 64.8947 86.2308 64.3933 85.8148 64.084C85.3988 63.764 84.8815 63.604 84.2628 63.604C83.3988 63.604 82.7375 63.8813 82.2788 64.436C81.8201 64.98 81.5908 65.6733 81.5908 66.516C81.5908 67.3693 81.8201 68.0733 82.2788 68.628C82.7375 69.172 83.3988 69.444 84.2628 69.444C84.8815 69.444 85.3988 69.2893 85.8148 68.98C86.2308 68.66 86.4921 68.1533 86.5988 67.46H88.0228C87.9588 68.1853 87.7348 68.788 87.3508 69.268C86.9668 69.748 86.4975 70.1 85.9428 70.324C85.3988 70.548 84.8388 70.66 84.2628 70.66C83.4308 70.66 82.7055 70.4787 82.0868 70.116C81.4681 69.7533 80.9935 69.2627 80.6628 68.644C80.3428 68.0147 80.1828 67.3053 80.1828 66.516ZM93.1083 64.772C94.1643 64.772 95.0016 64.9907 95.6203 65.428C96.2496 65.8547 96.5643 66.5907 96.5643 67.636C96.5643 68.6813 96.2496 69.4227 95.6203 69.86C95.0016 70.2867 94.1643 70.5 93.1083 70.5H89.9403V62.548H91.3643V64.772H93.1083ZM92.9483 69.316C93.4496 69.316 93.8496 69.2787 94.1483 69.204C94.4576 69.1293 94.6976 68.9693 94.8683 68.724C95.0496 68.4787 95.1403 68.116 95.1403 67.636C95.1403 67.156 95.0496 66.7933 94.8683 66.548C94.6976 66.3027 94.4576 66.1427 94.1483 66.068C93.8496 65.9933 93.4496 65.956 92.9483 65.956H91.3643V69.316H92.9483ZM99.7393 62.548V65.908H100.443L102.507 63.14C102.795 62.7453 103.201 62.548 103.723 62.548H104.987V63.764H103.707L101.787 66.308L105.163 70.5H103.547L100.747 67.124H99.7393V70.5H98.3153V62.548H99.7393ZM113.106 70.5V63.748L113.346 62.932H112.946L109.474 70.5H106.69V62.548H108.082V69.268L107.842 70.1H108.242L111.714 62.548H114.482V70.5H113.106ZM122.934 70.5V63.748L123.174 62.932H122.774L119.302 70.5H116.518V62.548H117.91V69.268L117.67 70.1H118.07L121.542 62.548H124.31V70.5H122.934ZM120.438 61.508C119.649 61.508 119.025 61.252 118.566 60.74C118.118 60.2173 117.894 59.54 117.894 58.708H119.046C119.046 59.3053 119.153 59.7373 119.366 60.004C119.59 60.2707 119.948 60.404 120.438 60.404C120.929 60.404 121.281 60.2707 121.494 60.004C121.718 59.7373 121.83 59.3053 121.83 58.708H122.982C122.982 59.54 122.753 60.2173 122.294 60.74C121.846 61.252 121.228 61.508 120.438 61.508ZM131.64 65.348C131.64 64.26 131.789 63.3693 132.088 62.676C132.397 61.972 132.85 61.4067 133.448 60.98C134.056 60.5533 134.85 60.196 135.832 59.908C136.514 59.7053 136.994 59.5507 137.272 59.444C137.56 59.3373 137.768 59.2253 137.896 59.108C138.024 58.98 138.12 58.804 138.184 58.58H139.864C139.778 59.06 139.592 59.444 139.304 59.732C139.016 60.0093 138.674 60.2227 138.28 60.372C137.896 60.5213 137.357 60.6813 136.664 60.852L136.056 61.012C135.32 61.2147 134.728 61.444 134.28 61.7C133.832 61.956 133.48 62.292 133.224 62.708C132.968 63.124 132.802 63.6573 132.728 64.308L132.328 65.268H132.728C132.93 64.34 133.325 63.6307 133.912 63.14C134.509 62.6387 135.277 62.388 136.216 62.388C136.973 62.388 137.645 62.5533 138.232 62.884C138.829 63.204 139.298 63.6733 139.64 64.292C139.981 64.9 140.152 65.62 140.152 66.452C140.152 67.2627 139.992 67.988 139.672 68.628C139.362 69.2573 138.888 69.7533 138.248 70.116C137.618 70.4787 136.85 70.66 135.944 70.66C134.546 70.66 133.48 70.2067 132.744 69.3C132.008 68.3933 131.64 67.076 131.64 65.348ZM133.064 66.5C133.064 67.364 133.304 68.0733 133.784 68.628C134.274 69.172 135 69.444 135.96 69.444C136.866 69.444 137.554 69.1827 138.024 68.66C138.493 68.1267 138.728 67.4013 138.728 66.484C138.728 65.5773 138.493 64.8733 138.024 64.372C137.565 63.86 136.882 63.604 135.976 63.604C135.037 63.604 134.317 63.8707 133.816 64.404C133.314 64.9267 133.064 65.6253 133.064 66.5ZM141.23 69.284H143.438V63.764H141.79V62.548H143.854C144.452 62.548 144.75 62.8573 144.75 63.476V69.284H146.974V70.5H141.23V69.284ZM143.918 61.188C143.598 61.188 143.332 61.0867 143.118 60.884C142.905 60.6813 142.798 60.4253 142.798 60.116C142.798 59.8067 142.905 59.5507 143.118 59.348C143.332 59.1453 143.598 59.044 143.918 59.044C144.238 59.044 144.51 59.1453 144.734 59.348C144.958 59.5507 145.07 59.8067 145.07 60.116C145.07 60.4253 144.958 60.6813 144.734 60.884C144.51 61.0867 144.238 61.188 143.918 61.188ZM149.655 67.396C149.655 68.1747 149.841 68.74 150.215 69.092C150.599 69.444 151.185 69.62 151.975 69.62C152.689 69.62 153.201 69.492 153.511 69.236C153.82 68.98 153.975 68.6067 153.975 68.116C153.975 67.6893 153.836 67.364 153.559 67.14C153.292 66.916 152.892 66.804 152.359 66.804H151.319V65.796H152.359C152.871 65.796 153.239 65.6947 153.463 65.492C153.687 65.2893 153.799 64.996 153.799 64.612C153.799 63.8227 153.169 63.428 151.911 63.428C151.164 63.428 150.631 63.5667 150.311 63.844C149.991 64.1107 149.831 64.5053 149.831 65.028H148.455C148.455 64.1853 148.743 63.5347 149.319 63.076C149.905 62.6173 150.769 62.388 151.911 62.388C152.945 62.388 153.745 62.5853 154.311 62.98C154.876 63.364 155.159 63.86 155.159 64.468C155.159 64.98 155.02 65.364 154.743 65.62C154.476 65.8653 154.097 66.0253 153.607 66.1V66.5C154.119 66.564 154.535 66.74 154.855 67.028C155.175 67.3053 155.335 67.7213 155.335 68.276C155.335 69.012 155.041 69.5933 154.455 70.02C153.868 70.4467 153.041 70.66 151.975 70.66C150.78 70.66 149.863 70.3933 149.223 69.86C148.593 69.3267 148.279 68.5053 148.279 67.396H149.655ZM158.802 62.548V65.908H163.218V62.548H164.626V70.5H163.218V67.124H158.802V70.5H157.378V62.548H158.802ZM166.558 66.42C166.558 65.1507 166.904 64.164 167.598 63.46C168.291 62.7453 169.214 62.388 170.366 62.388C171.56 62.388 172.504 62.7347 173.198 63.428C173.902 64.1107 174.254 65.06 174.254 66.276V66.788H167.934C167.955 67.5987 168.179 68.26 168.606 68.772C169.043 69.2733 169.656 69.524 170.446 69.524C171.107 69.524 171.64 69.364 172.046 69.044C172.462 68.724 172.739 68.2813 172.878 67.716H174.286C174.104 68.5587 173.704 69.2627 173.086 69.828C172.467 70.3827 171.592 70.66 170.462 70.66C169.63 70.66 168.92 70.4733 168.334 70.1C167.747 69.7267 167.304 69.22 167.006 68.58C166.707 67.94 166.558 67.22 166.558 66.42ZM172.862 65.78C172.819 65.0653 172.568 64.5107 172.11 64.116C171.662 63.7107 171.08 63.508 170.366 63.508C169.694 63.508 169.134 63.7107 168.686 64.116C168.248 64.5213 168.003 65.076 167.95 65.78H172.862ZM175.886 66.516C175.886 65.7373 176.046 65.0387 176.366 64.42C176.697 63.7907 177.171 63.2947 177.79 62.932C178.409 62.5693 179.134 62.388 179.966 62.388C180.542 62.388 181.102 62.5 181.646 62.724C182.201 62.948 182.67 63.3 183.054 63.78C183.438 64.26 183.662 64.8627 183.726 65.588H182.302C182.195 64.8947 181.934 64.3933 181.518 64.084C181.102 63.764 180.585 63.604 179.966 63.604C179.102 63.604 178.441 63.8813 177.982 64.436C177.523 64.98 177.294 65.6733 177.294 66.516C177.294 67.3693 177.523 68.0733 177.982 68.628C178.441 69.172 179.102 69.444 179.966 69.444C180.585 69.444 181.102 69.2893 181.518 68.98C181.934 68.66 182.195 68.1533 182.302 67.46H183.726C183.662 68.1853 183.438 68.788 183.054 69.268C182.67 69.748 182.201 70.1 181.646 70.324C181.102 70.548 180.542 70.66 179.966 70.66C179.134 70.66 178.409 70.4787 177.79 70.116C177.171 69.7533 176.697 69.2627 176.366 68.644C176.046 68.0147 175.886 67.3053 175.886 66.516Z" fill="#E1DCD5"/>
<path d="M104.996 155.672H83.3795C83.3795 155.672 83.379 148.697 83.3786 139.818M104.996 95.5C104.996 95.5 104.996 111.146 104.996 124.125C104.996 125.484 104.896 126.85 104.626 128.182C101.824 141.957 95.5652 143.942 96.3609 155.672C96.9423 164.243 103.915 168.978 103.915 168.978L104.996 170.5V155.172C104.996 152.591 104.379 149.906 102.451 148.189C102.2 147.966 101.949 147.771 101.706 147.625C100.227 146.733 97.6535 146.21 97.6535 146.21C97.6535 146.21 89.3485 146.215 89.2965 140.044C89.2958 139.968 89.2962 139.892 89.2975 139.818M83.3786 139.818C83.3781 127.262 83.3777 110.898 83.3795 105.059C93.7162 109.49 93.7162 133.958 93.7162 133.958C93.7162 133.958 89.3846 134.89 89.2975 139.818M83.3786 139.818H89.2975" stroke="#EB3B28" stroke-width="1.5" stroke-linecap="round" stroke-linejoin="round"/>
<path d="M105.004 155.672H126.62C126.62 155.672 126.621 148.697 126.621 139.818M105.004 95.5C105.004 95.5 105.004 111.146 105.004 124.125C105.004 125.484 105.104 126.85 105.374 128.182C108.176 141.957 114.435 143.942 113.639 155.672C113.058 164.243 106.084 168.978 106.084 168.978L105.004 170.5V155.172C105.004 152.591 105.621 149.906 107.548 148.189C107.799 147.966 108.051 147.771 108.294 147.625C109.773 146.733 112.346 146.21 112.346 146.21C112.346 146.21 120.651 146.215 120.703 140.044C120.704 139.968 120.704 139.892 120.702 139.818M126.621 139.818C126.622 127.262 126.622 110.898 126.62 105.059C116.284 109.49 116.284 133.958 116.284 133.958C116.284 133.958 120.615 134.89 120.702 139.818M126.621 139.818H120.702" stroke="#EB3B28" stroke-width="1.5" stroke-linecap="round" stroke-linejoin="round"/>
</svg>
