<svg width="75" height="75" viewBox="0 0 75 75" fill="none" xmlns="http://www.w3.org/2000/svg">
<path d="M36.5742 0V17.9016" stroke="#A0D7FF" stroke-width="1.5"/>
<rect x="0.75" y="35.0322" width="73.1495" height="38.8664" stroke="#A0D7FF" stroke-width="1.5"/>
<mask id="mask0_732_6921" style="mask-type:alpha" maskUnits="userSpaceOnUse" x="0" y="34" width="75" height="41">
<rect y="34.2822" width="74.6495" height="40.3664" fill="#A0D7FF"/>
</mask>
<g mask="url(#mask0_732_6921)">
<g clip-path="url(#clip0_732_6921)">
<circle cx="1.82471" cy="35.0439" r="0.5" fill="#A0D7FF"/>
<circle cx="3.82471" cy="35.0439" r="0.5" fill="#A0D7FF"/>
<circle cx="5.82471" cy="35.0439" r="0.5" fill="#A0D7FF"/>
<circle cx="7.82471" cy="35.0439" r="0.5" fill="#A0D7FF"/>
<circle cx="9.82471" cy="35.0439" r="0.5" fill="#A0D7FF"/>
<circle cx="11.8247" cy="35.0439" r="0.5" fill="#A0D7FF"/>
<circle cx="13.8247" cy="35.0439" r="0.5" fill="#A0D7FF"/>
<circle cx="15.8247" cy="35.0439" r="0.5" fill="#A0D7FF"/>
<circle cx="17.8247" cy="35.0439" r="0.5" fill="#A0D7FF"/>
<circle cx="19.8247" cy="35.0439" r="0.5" fill="#A0D7FF"/>
<circle cx="21.8247" cy="35.0439" r="0.5" fill="#A0D7FF"/>
<circle cx="23.8247" cy="35.0439" r="0.5" fill="#A0D7FF"/>
<circle cx="25.8247" cy="35.0439" r="0.5" fill="#A0D7FF"/>
<circle cx="27.8247" cy="35.0439" r="0.5" fill="#A0D7FF"/>
<circle cx="29.8247" cy="35.0439" r="0.5" fill="#A0D7FF"/>
<circle cx="31.8247" cy="35.0439" r="0.5" fill="#A0D7FF"/>
<circle cx="33.8247" cy="35.0439" r="0.5" fill="#A0D7FF"/>
<circle cx="35.8247" cy="35.0439" r="0.5" fill="#A0D7FF"/>
<circle cx="37.8247" cy="35.0439" r="0.5" fill="#A0D7FF"/>
<circle cx="39.8247" cy="35.0439" r="0.5" fill="#A0D7FF"/>
<circle cx="41.8247" cy="35.0439" r="0.5" fill="#A0D7FF"/>
<circle cx="43.8247" cy="35.0439" r="0.5" fill="#A0D7FF"/>
<circle cx="45.8247" cy="35.0439" r="0.5" fill="#A0D7FF"/>
<circle cx="47.8247" cy="35.0439" r="0.5" fill="#A0D7FF"/>
<circle cx="49.8247" cy="35.0439" r="0.5" fill="#A0D7FF"/>
<circle cx="51.8247" cy="35.0439" r="0.5" fill="#A0D7FF"/>
<circle cx="53.8247" cy="35.0439" r="0.5" fill="#A0D7FF"/>
<circle cx="55.8247" cy="35.0439" r="0.5" fill="#A0D7FF"/>
<circle cx="57.8247" cy="35.0439" r="0.5" fill="#A0D7FF"/>
<circle cx="59.8247" cy="35.0439" r="0.5" fill="#A0D7FF"/>
<circle cx="61.8247" cy="35.0439" r="0.5" fill="#A0D7FF"/>
<circle cx="63.8247" cy="35.0439" r="0.5" fill="#A0D7FF"/>
<circle cx="65.8247" cy="35.0439" r="0.5" fill="#A0D7FF"/>
<circle cx="67.8247" cy="35.0439" r="0.5" fill="#A0D7FF"/>
<circle cx="69.8247" cy="35.0439" r="0.5" fill="#A0D7FF"/>
<circle cx="71.8247" cy="35.0439" r="0.5" fill="#A0D7FF"/>
<circle cx="1.82471" cy="37.0439" r="0.5" fill="#A0D7FF"/>
<circle cx="3.82471" cy="37.0439" r="0.5" fill="#A0D7FF"/>
<circle cx="5.82471" cy="37.0439" r="0.5" fill="#A0D7FF"/>
<circle cx="7.82471" cy="37.0439" r="0.5" fill="#A0D7FF"/>
<circle cx="9.82471" cy="37.0439" r="0.5" fill="#A0D7FF"/>
<circle cx="11.8247" cy="37.0439" r="0.5" fill="#A0D7FF"/>
<circle cx="13.8247" cy="37.0439" r="0.5" fill="#A0D7FF"/>
<circle cx="15.8247" cy="37.0439" r="0.5" fill="#A0D7FF"/>
<circle cx="17.8247" cy="37.0439" r="0.5" fill="#A0D7FF"/>
<circle cx="19.8247" cy="37.0439" r="0.5" fill="#A0D7FF"/>
<circle cx="21.8247" cy="37.0439" r="0.5" fill="#A0D7FF"/>
<circle cx="23.8247" cy="37.0439" r="0.5" fill="#A0D7FF"/>
<circle cx="25.8247" cy="37.0439" r="0.5" fill="#A0D7FF"/>
<circle cx="27.8247" cy="37.0439" r="0.5" fill="#A0D7FF"/>
<circle cx="29.8247" cy="37.0439" r="0.5" fill="#A0D7FF"/>
<circle cx="31.8247" cy="37.0439" r="0.5" fill="#A0D7FF"/>
<circle cx="33.8247" cy="37.0439" r="0.5" fill="#A0D7FF"/>
<circle cx="35.8247" cy="37.0439" r="0.5" fill="#A0D7FF"/>
<circle cx="37.8247" cy="37.0439" r="0.5" fill="#A0D7FF"/>
<circle cx="39.8247" cy="37.0439" r="0.5" fill="#A0D7FF"/>
<circle cx="41.8247" cy="37.0439" r="0.5" fill="#A0D7FF"/>
<circle cx="43.8247" cy="37.0439" r="0.5" fill="#A0D7FF"/>
<circle cx="45.8247" cy="37.0439" r="0.5" fill="#A0D7FF"/>
<circle cx="47.8247" cy="37.0439" r="0.5" fill="#A0D7FF"/>
<circle cx="49.8247" cy="37.0439" r="0.5" fill="#A0D7FF"/>
<circle cx="51.8247" cy="37.0439" r="0.5" fill="#A0D7FF"/>
<circle cx="53.8247" cy="37.0439" r="0.5" fill="#A0D7FF"/>
<circle cx="55.8247" cy="37.0439" r="0.5" fill="#A0D7FF"/>
<circle cx="57.8247" cy="37.0439" r="0.5" fill="#A0D7FF"/>
<circle cx="59.8247" cy="37.0439" r="0.5" fill="#A0D7FF"/>
<circle cx="61.8247" cy="37.0439" r="0.5" fill="#A0D7FF"/>
<circle cx="63.8247" cy="37.0439" r="0.5" fill="#A0D7FF"/>
<circle cx="65.8247" cy="37.0439" r="0.5" fill="#A0D7FF"/>
<circle cx="67.8247" cy="37.0439" r="0.5" fill="#A0D7FF"/>
<circle cx="69.8247" cy="37.0439" r="0.5" fill="#A0D7FF"/>
<circle cx="71.8247" cy="37.0439" r="0.5" fill="#A0D7FF"/>
<circle cx="1.82471" cy="39.0439" r="0.5" fill="#A0D7FF"/>
<circle cx="3.82471" cy="39.0439" r="0.5" fill="#A0D7FF"/>
<circle cx="5.82471" cy="39.0439" r="0.5" fill="#A0D7FF"/>
<circle cx="7.82471" cy="39.0439" r="0.5" fill="#A0D7FF"/>
<circle cx="9.82471" cy="39.0439" r="0.5" fill="#A0D7FF"/>
<circle cx="11.8247" cy="39.0439" r="0.5" fill="#A0D7FF"/>
<circle cx="13.8247" cy="39.0439" r="0.5" fill="#A0D7FF"/>
<circle cx="15.8247" cy="39.0439" r="0.5" fill="#A0D7FF"/>
<circle cx="17.8247" cy="39.0439" r="0.5" fill="#A0D7FF"/>
<circle cx="19.8247" cy="39.0439" r="0.5" fill="#A0D7FF"/>
<circle cx="21.8247" cy="39.0439" r="0.5" fill="#A0D7FF"/>
<circle cx="23.8247" cy="39.0439" r="0.5" fill="#A0D7FF"/>
<circle cx="25.8247" cy="39.0439" r="0.5" fill="#A0D7FF"/>
<circle cx="27.8247" cy="39.0439" r="0.5" fill="#A0D7FF"/>
<circle cx="29.8247" cy="39.0439" r="0.5" fill="#A0D7FF"/>
<circle cx="31.8247" cy="39.0439" r="0.5" fill="#A0D7FF"/>
<circle cx="33.8247" cy="39.0439" r="0.5" fill="#A0D7FF"/>
<circle cx="35.8247" cy="39.0439" r="0.5" fill="#A0D7FF"/>
<circle cx="37.8247" cy="39.0439" r="0.5" fill="#A0D7FF"/>
<circle cx="39.8247" cy="39.0439" r="0.5" fill="#A0D7FF"/>
<circle cx="41.8247" cy="39.0439" r="0.5" fill="#A0D7FF"/>
<circle cx="43.8247" cy="39.0439" r="0.5" fill="#A0D7FF"/>
<circle cx="45.8247" cy="39.0439" r="0.5" fill="#A0D7FF"/>
<circle cx="47.8247" cy="39.0439" r="0.5" fill="#A0D7FF"/>
<circle cx="49.8247" cy="39.0439" r="0.5" fill="#A0D7FF"/>
<circle cx="51.8247" cy="39.0439" r="0.5" fill="#A0D7FF"/>
<circle cx="53.8247" cy="39.0439" r="0.5" fill="#A0D7FF"/>
<circle cx="55.8247" cy="39.0439" r="0.5" fill="#A0D7FF"/>
<circle cx="57.8247" cy="39.0439" r="0.5" fill="#A0D7FF"/>
<circle cx="59.8247" cy="39.0439" r="0.5" fill="#A0D7FF"/>
<circle cx="61.8247" cy="39.0439" r="0.5" fill="#A0D7FF"/>
<circle cx="63.8247" cy="39.0439" r="0.5" fill="#A0D7FF"/>
<circle cx="65.8247" cy="39.0439" r="0.5" fill="#A0D7FF"/>
<circle cx="67.8247" cy="39.0439" r="0.5" fill="#A0D7FF"/>
<circle cx="69.8247" cy="39.0439" r="0.5" fill="#A0D7FF"/>
<circle cx="71.8247" cy="39.0439" r="0.5" fill="#A0D7FF"/>
<circle cx="1.82471" cy="41.0439" r="0.5" fill="#A0D7FF"/>
<circle cx="3.82471" cy="41.0439" r="0.5" fill="#A0D7FF"/>
<circle cx="5.82471" cy="41.0439" r="0.5" fill="#A0D7FF"/>
<circle cx="7.82471" cy="41.0439" r="0.5" fill="#A0D7FF"/>
<circle cx="9.82471" cy="41.0439" r="0.5" fill="#A0D7FF"/>
<circle cx="11.8247" cy="41.0439" r="0.5" fill="#A0D7FF"/>
<circle cx="13.8247" cy="41.0439" r="0.5" fill="#A0D7FF"/>
<circle cx="15.8247" cy="41.0439" r="0.5" fill="#A0D7FF"/>
<circle cx="17.8247" cy="41.0439" r="0.5" fill="#A0D7FF"/>
<circle cx="19.8247" cy="41.0439" r="0.5" fill="#A0D7FF"/>
<circle cx="21.8247" cy="41.0439" r="0.5" fill="#A0D7FF"/>
<circle cx="23.8247" cy="41.0439" r="0.5" fill="#A0D7FF"/>
<circle cx="25.8247" cy="41.0439" r="0.5" fill="#A0D7FF"/>
<circle cx="27.8247" cy="41.0439" r="0.5" fill="#A0D7FF"/>
<circle cx="29.8247" cy="41.0439" r="0.5" fill="#A0D7FF"/>
<circle cx="31.8247" cy="41.0439" r="0.5" fill="#A0D7FF"/>
<circle cx="33.8247" cy="41.0439" r="0.5" fill="#A0D7FF"/>
<circle cx="35.8247" cy="41.0439" r="0.5" fill="#A0D7FF"/>
<circle cx="37.8247" cy="41.0439" r="0.5" fill="#A0D7FF"/>
<circle cx="39.8247" cy="41.0439" r="0.5" fill="#A0D7FF"/>
<circle cx="41.8247" cy="41.0439" r="0.5" fill="#A0D7FF"/>
<circle cx="43.8247" cy="41.0439" r="0.5" fill="#A0D7FF"/>
<circle cx="45.8247" cy="41.0439" r="0.5" fill="#A0D7FF"/>
<circle cx="47.8247" cy="41.0439" r="0.5" fill="#A0D7FF"/>
<circle cx="49.8247" cy="41.0439" r="0.5" fill="#A0D7FF"/>
<circle cx="51.8247" cy="41.0439" r="0.5" fill="#A0D7FF"/>
<circle cx="53.8247" cy="41.0439" r="0.5" fill="#A0D7FF"/>
<circle cx="55.8247" cy="41.0439" r="0.5" fill="#A0D7FF"/>
<circle cx="57.8247" cy="41.0439" r="0.5" fill="#A0D7FF"/>
<circle cx="59.8247" cy="41.0439" r="0.5" fill="#A0D7FF"/>
<circle cx="61.8247" cy="41.0439" r="0.5" fill="#A0D7FF"/>
<circle cx="63.8247" cy="41.0439" r="0.5" fill="#A0D7FF"/>
<circle cx="65.8247" cy="41.0439" r="0.5" fill="#A0D7FF"/>
<circle cx="67.8247" cy="41.0439" r="0.5" fill="#A0D7FF"/>
<circle cx="69.8247" cy="41.0439" r="0.5" fill="#A0D7FF"/>
<circle cx="71.8247" cy="41.0439" r="0.5" fill="#A0D7FF"/>
<circle cx="1.82471" cy="43.0439" r="0.5" fill="#A0D7FF"/>
<circle cx="3.82471" cy="43.0439" r="0.5" fill="#A0D7FF"/>
<circle cx="5.82471" cy="43.0439" r="0.5" fill="#A0D7FF"/>
<circle cx="7.82471" cy="43.0439" r="0.5" fill="#A0D7FF"/>
<circle cx="9.82471" cy="43.0439" r="0.5" fill="#A0D7FF"/>
<circle cx="11.8247" cy="43.0439" r="0.5" fill="#A0D7FF"/>
<circle cx="13.8247" cy="43.0439" r="0.5" fill="#A0D7FF"/>
<circle cx="15.8247" cy="43.0439" r="0.5" fill="#A0D7FF"/>
<circle cx="17.8247" cy="43.0439" r="0.5" fill="#A0D7FF"/>
<circle cx="19.8247" cy="43.0439" r="0.5" fill="#A0D7FF"/>
<circle cx="21.8247" cy="43.0439" r="0.5" fill="#A0D7FF"/>
<circle cx="23.8247" cy="43.0439" r="0.5" fill="#A0D7FF"/>
<circle cx="25.8247" cy="43.0439" r="0.5" fill="#A0D7FF"/>
<circle cx="27.8247" cy="43.0439" r="0.5" fill="#A0D7FF"/>
<circle cx="29.8247" cy="43.0439" r="0.5" fill="#A0D7FF"/>
<circle cx="31.8247" cy="43.0439" r="0.5" fill="#A0D7FF"/>
<circle cx="33.8247" cy="43.0439" r="0.5" fill="#A0D7FF"/>
<circle cx="35.8247" cy="43.0439" r="0.5" fill="#A0D7FF"/>
<circle cx="37.8247" cy="43.0439" r="0.5" fill="#A0D7FF"/>
<circle cx="39.8247" cy="43.0439" r="0.5" fill="#A0D7FF"/>
<circle cx="41.8247" cy="43.0439" r="0.5" fill="#A0D7FF"/>
<circle cx="43.8247" cy="43.0439" r="0.5" fill="#A0D7FF"/>
<circle cx="45.8247" cy="43.0439" r="0.5" fill="#A0D7FF"/>
<circle cx="47.8247" cy="43.0439" r="0.5" fill="#A0D7FF"/>
<circle cx="49.8247" cy="43.0439" r="0.5" fill="#A0D7FF"/>
<circle cx="51.8247" cy="43.0439" r="0.5" fill="#A0D7FF"/>
<circle cx="53.8247" cy="43.0439" r="0.5" fill="#A0D7FF"/>
<circle cx="55.8247" cy="43.0439" r="0.5" fill="#A0D7FF"/>
<circle cx="57.8247" cy="43.0439" r="0.5" fill="#A0D7FF"/>
<circle cx="59.8247" cy="43.0439" r="0.5" fill="#A0D7FF"/>
<circle cx="61.8247" cy="43.0439" r="0.5" fill="#A0D7FF"/>
<circle cx="63.8247" cy="43.0439" r="0.5" fill="#A0D7FF"/>
<circle cx="65.8247" cy="43.0439" r="0.5" fill="#A0D7FF"/>
<circle cx="67.8247" cy="43.0439" r="0.5" fill="#A0D7FF"/>
<circle cx="69.8247" cy="43.0439" r="0.5" fill="#A0D7FF"/>
<circle cx="71.8247" cy="43.0439" r="0.5" fill="#A0D7FF"/>
<circle cx="1.82471" cy="45.0439" r="0.5" fill="#A0D7FF"/>
<circle cx="3.82471" cy="45.0439" r="0.5" fill="#A0D7FF"/>
<circle cx="5.82471" cy="45.0439" r="0.5" fill="#A0D7FF"/>
<circle cx="7.82471" cy="45.0439" r="0.5" fill="#A0D7FF"/>
<circle cx="9.82471" cy="45.0439" r="0.5" fill="#A0D7FF"/>
<circle cx="11.8247" cy="45.0439" r="0.5" fill="#A0D7FF"/>
<circle cx="13.8247" cy="45.0439" r="0.5" fill="#A0D7FF"/>
<circle cx="15.8247" cy="45.0439" r="0.5" fill="#A0D7FF"/>
<circle cx="17.8247" cy="45.0439" r="0.5" fill="#A0D7FF"/>
<circle cx="19.8247" cy="45.0439" r="0.5" fill="#A0D7FF"/>
<circle cx="21.8247" cy="45.0439" r="0.5" fill="#A0D7FF"/>
<circle cx="23.8247" cy="45.0439" r="0.5" fill="#A0D7FF"/>
<circle cx="25.8247" cy="45.0439" r="0.5" fill="#A0D7FF"/>
<circle cx="27.8247" cy="45.0439" r="0.5" fill="#A0D7FF"/>
<circle cx="29.8247" cy="45.0439" r="0.5" fill="#A0D7FF"/>
<circle cx="31.8247" cy="45.0439" r="0.5" fill="#A0D7FF"/>
<circle cx="33.8247" cy="45.0439" r="0.5" fill="#A0D7FF"/>
<circle cx="35.8247" cy="45.0439" r="0.5" fill="#A0D7FF"/>
<circle cx="37.8247" cy="45.0439" r="0.5" fill="#A0D7FF"/>
<circle cx="39.8247" cy="45.0439" r="0.5" fill="#A0D7FF"/>
<circle cx="41.8247" cy="45.0439" r="0.5" fill="#A0D7FF"/>
<circle cx="43.8247" cy="45.0439" r="0.5" fill="#A0D7FF"/>
<circle cx="45.8247" cy="45.0439" r="0.5" fill="#A0D7FF"/>
<circle cx="47.8247" cy="45.0439" r="0.5" fill="#A0D7FF"/>
<circle cx="49.8247" cy="45.0439" r="0.5" fill="#A0D7FF"/>
<circle cx="51.8247" cy="45.0439" r="0.5" fill="#A0D7FF"/>
<circle cx="53.8247" cy="45.0439" r="0.5" fill="#A0D7FF"/>
<circle cx="55.8247" cy="45.0439" r="0.5" fill="#A0D7FF"/>
<circle cx="57.8247" cy="45.0439" r="0.5" fill="#A0D7FF"/>
<circle cx="59.8247" cy="45.0439" r="0.5" fill="#A0D7FF"/>
<circle cx="61.8247" cy="45.0439" r="0.5" fill="#A0D7FF"/>
<circle cx="63.8247" cy="45.0439" r="0.5" fill="#A0D7FF"/>
<circle cx="65.8247" cy="45.0439" r="0.5" fill="#A0D7FF"/>
<circle cx="67.8247" cy="45.0439" r="0.5" fill="#A0D7FF"/>
<circle cx="69.8247" cy="45.0439" r="0.5" fill="#A0D7FF"/>
<circle cx="71.8247" cy="45.0439" r="0.5" fill="#A0D7FF"/>
<circle cx="1.82471" cy="47.0439" r="0.5" fill="#A0D7FF"/>
<circle cx="3.82471" cy="47.0439" r="0.5" fill="#A0D7FF"/>
<circle cx="5.82471" cy="47.0439" r="0.5" fill="#A0D7FF"/>
<circle cx="7.82471" cy="47.0439" r="0.5" fill="#A0D7FF"/>
<circle cx="9.82471" cy="47.0439" r="0.5" fill="#A0D7FF"/>
<circle cx="11.8247" cy="47.0439" r="0.5" fill="#A0D7FF"/>
<circle cx="13.8247" cy="47.0439" r="0.5" fill="#A0D7FF"/>
<circle cx="15.8247" cy="47.0439" r="0.5" fill="#A0D7FF"/>
<circle cx="17.8247" cy="47.0439" r="0.5" fill="#A0D7FF"/>
<circle cx="19.8247" cy="47.0439" r="0.5" fill="#A0D7FF"/>
<circle cx="21.8247" cy="47.0439" r="0.5" fill="#A0D7FF"/>
<circle cx="23.8247" cy="47.0439" r="0.5" fill="#A0D7FF"/>
<circle cx="25.8247" cy="47.0439" r="0.5" fill="#A0D7FF"/>
<circle cx="27.8247" cy="47.0439" r="0.5" fill="#A0D7FF"/>
<circle cx="29.8247" cy="47.0439" r="0.5" fill="#A0D7FF"/>
<circle cx="31.8247" cy="47.0439" r="0.5" fill="#A0D7FF"/>
<circle cx="33.8247" cy="47.0439" r="0.5" fill="#A0D7FF"/>
<circle cx="35.8247" cy="47.0439" r="0.5" fill="#A0D7FF"/>
<circle cx="37.8247" cy="47.0439" r="0.5" fill="#A0D7FF"/>
<circle cx="39.8247" cy="47.0439" r="0.5" fill="#A0D7FF"/>
<circle cx="41.8247" cy="47.0439" r="0.5" fill="#A0D7FF"/>
<circle cx="43.8247" cy="47.0439" r="0.5" fill="#A0D7FF"/>
<circle cx="45.8247" cy="47.0439" r="0.5" fill="#A0D7FF"/>
<circle cx="47.8247" cy="47.0439" r="0.5" fill="#A0D7FF"/>
<circle cx="49.8247" cy="47.0439" r="0.5" fill="#A0D7FF"/>
<circle cx="51.8247" cy="47.0439" r="0.5" fill="#A0D7FF"/>
<circle cx="53.8247" cy="47.0439" r="0.5" fill="#A0D7FF"/>
<circle cx="55.8247" cy="47.0439" r="0.5" fill="#A0D7FF"/>
<circle cx="57.8247" cy="47.0439" r="0.5" fill="#A0D7FF"/>
<circle cx="59.8247" cy="47.0439" r="0.5" fill="#A0D7FF"/>
<circle cx="61.8247" cy="47.0439" r="0.5" fill="#A0D7FF"/>
<circle cx="63.8247" cy="47.0439" r="0.5" fill="#A0D7FF"/>
<circle cx="65.8247" cy="47.0439" r="0.5" fill="#A0D7FF"/>
<circle cx="67.8247" cy="47.0439" r="0.5" fill="#A0D7FF"/>
<circle cx="69.8247" cy="47.0439" r="0.5" fill="#A0D7FF"/>
<circle cx="71.8247" cy="47.0439" r="0.5" fill="#A0D7FF"/>
<circle cx="1.82471" cy="49.0439" r="0.5" fill="#A0D7FF"/>
<circle cx="3.82471" cy="49.0439" r="0.5" fill="#A0D7FF"/>
<circle cx="5.82471" cy="49.0439" r="0.5" fill="#A0D7FF"/>
<circle cx="7.82471" cy="49.0439" r="0.5" fill="#A0D7FF"/>
<circle cx="9.82471" cy="49.0439" r="0.5" fill="#A0D7FF"/>
<circle cx="11.8247" cy="49.0439" r="0.5" fill="#A0D7FF"/>
<circle cx="13.8247" cy="49.0439" r="0.5" fill="#A0D7FF"/>
<circle cx="15.8247" cy="49.0439" r="0.5" fill="#A0D7FF"/>
<circle cx="17.8247" cy="49.0439" r="0.5" fill="#A0D7FF"/>
<circle cx="19.8247" cy="49.0439" r="0.5" fill="#A0D7FF"/>
<circle cx="21.8247" cy="49.0439" r="0.5" fill="#A0D7FF"/>
<circle cx="23.8247" cy="49.0439" r="0.5" fill="#A0D7FF"/>
<circle cx="25.8247" cy="49.0439" r="0.5" fill="#A0D7FF"/>
<circle cx="27.8247" cy="49.0439" r="0.5" fill="#A0D7FF"/>
<circle cx="29.8247" cy="49.0439" r="0.5" fill="#A0D7FF"/>
<circle cx="31.8247" cy="49.0439" r="0.5" fill="#A0D7FF"/>
<circle cx="33.8247" cy="49.0439" r="0.5" fill="#A0D7FF"/>
<circle cx="35.8247" cy="49.0439" r="0.5" fill="#A0D7FF"/>
<circle cx="37.8247" cy="49.0439" r="0.5" fill="#A0D7FF"/>
<circle cx="39.8247" cy="49.0439" r="0.5" fill="#A0D7FF"/>
<circle cx="41.8247" cy="49.0439" r="0.5" fill="#A0D7FF"/>
<circle cx="43.8247" cy="49.0439" r="0.5" fill="#A0D7FF"/>
<circle cx="45.8247" cy="49.0439" r="0.5" fill="#A0D7FF"/>
<circle cx="47.8247" cy="49.0439" r="0.5" fill="#A0D7FF"/>
<circle cx="49.8247" cy="49.0439" r="0.5" fill="#A0D7FF"/>
<circle cx="51.8247" cy="49.0439" r="0.5" fill="#A0D7FF"/>
<circle cx="53.8247" cy="49.0439" r="0.5" fill="#A0D7FF"/>
<circle cx="55.8247" cy="49.0439" r="0.5" fill="#A0D7FF"/>
<circle cx="57.8247" cy="49.0439" r="0.5" fill="#A0D7FF"/>
<circle cx="59.8247" cy="49.0439" r="0.5" fill="#A0D7FF"/>
<circle cx="61.8247" cy="49.0439" r="0.5" fill="#A0D7FF"/>
<circle cx="63.8247" cy="49.0439" r="0.5" fill="#A0D7FF"/>
<circle cx="65.8247" cy="49.0439" r="0.5" fill="#A0D7FF"/>
<circle cx="67.8247" cy="49.0439" r="0.5" fill="#A0D7FF"/>
<circle cx="69.8247" cy="49.0439" r="0.5" fill="#A0D7FF"/>
<circle cx="71.8247" cy="49.0439" r="0.5" fill="#A0D7FF"/>
<circle cx="1.82471" cy="51.0439" r="0.5" fill="#A0D7FF"/>
<circle cx="3.82471" cy="51.0439" r="0.5" fill="#A0D7FF"/>
<circle cx="5.82471" cy="51.0439" r="0.5" fill="#A0D7FF"/>
<circle cx="7.82471" cy="51.0439" r="0.5" fill="#A0D7FF"/>
<circle cx="9.82471" cy="51.0439" r="0.5" fill="#A0D7FF"/>
<circle cx="11.8247" cy="51.0439" r="0.5" fill="#A0D7FF"/>
<circle cx="13.8247" cy="51.0439" r="0.5" fill="#A0D7FF"/>
<circle cx="15.8247" cy="51.0439" r="0.5" fill="#A0D7FF"/>
<circle cx="17.8247" cy="51.0439" r="0.5" fill="#A0D7FF"/>
<circle cx="19.8247" cy="51.0439" r="0.5" fill="#A0D7FF"/>
<circle cx="21.8247" cy="51.0439" r="0.5" fill="#A0D7FF"/>
<circle cx="23.8247" cy="51.0439" r="0.5" fill="#A0D7FF"/>
<circle cx="25.8247" cy="51.0439" r="0.5" fill="#A0D7FF"/>
<circle cx="27.8247" cy="51.0439" r="0.5" fill="#A0D7FF"/>
<circle cx="29.8247" cy="51.0439" r="0.5" fill="#A0D7FF"/>
<circle cx="31.8247" cy="51.0439" r="0.5" fill="#A0D7FF"/>
<circle cx="33.8247" cy="51.0439" r="0.5" fill="#A0D7FF"/>
<circle cx="35.8247" cy="51.0439" r="0.5" fill="#A0D7FF"/>
<circle cx="37.8247" cy="51.0439" r="0.5" fill="#A0D7FF"/>
<circle cx="39.8247" cy="51.0439" r="0.5" fill="#A0D7FF"/>
<circle cx="41.8247" cy="51.0439" r="0.5" fill="#A0D7FF"/>
<circle cx="43.8247" cy="51.0439" r="0.5" fill="#A0D7FF"/>
<circle cx="45.8247" cy="51.0439" r="0.5" fill="#A0D7FF"/>
<circle cx="47.8247" cy="51.0439" r="0.5" fill="#A0D7FF"/>
<circle cx="49.8247" cy="51.0439" r="0.5" fill="#A0D7FF"/>
<circle cx="51.8247" cy="51.0439" r="0.5" fill="#A0D7FF"/>
<circle cx="53.8247" cy="51.0439" r="0.5" fill="#A0D7FF"/>
<circle cx="55.8247" cy="51.0439" r="0.5" fill="#A0D7FF"/>
<circle cx="57.8247" cy="51.0439" r="0.5" fill="#A0D7FF"/>
<circle cx="59.8247" cy="51.0439" r="0.5" fill="#A0D7FF"/>
<circle cx="61.8247" cy="51.0439" r="0.5" fill="#A0D7FF"/>
<circle cx="63.8247" cy="51.0439" r="0.5" fill="#A0D7FF"/>
<circle cx="65.8247" cy="51.0439" r="0.5" fill="#A0D7FF"/>
<circle cx="67.8247" cy="51.0439" r="0.5" fill="#A0D7FF"/>
<circle cx="69.8247" cy="51.0439" r="0.5" fill="#A0D7FF"/>
<circle cx="71.8247" cy="51.0439" r="0.5" fill="#A0D7FF"/>
<circle cx="1.82471" cy="53.0439" r="0.5" fill="#A0D7FF"/>
<circle cx="3.82471" cy="53.0439" r="0.5" fill="#A0D7FF"/>
<circle cx="5.82471" cy="53.0439" r="0.5" fill="#A0D7FF"/>
<circle cx="7.82471" cy="53.0439" r="0.5" fill="#A0D7FF"/>
<circle cx="9.82471" cy="53.0439" r="0.5" fill="#A0D7FF"/>
<circle cx="11.8247" cy="53.0439" r="0.5" fill="#A0D7FF"/>
<circle cx="13.8247" cy="53.0439" r="0.5" fill="#A0D7FF"/>
<circle cx="15.8247" cy="53.0439" r="0.5" fill="#A0D7FF"/>
<circle cx="17.8247" cy="53.0439" r="0.5" fill="#A0D7FF"/>
<circle cx="19.8247" cy="53.0439" r="0.5" fill="#A0D7FF"/>
<circle cx="21.8247" cy="53.0439" r="0.5" fill="#A0D7FF"/>
<circle cx="23.8247" cy="53.0439" r="0.5" fill="#A0D7FF"/>
<circle cx="25.8247" cy="53.0439" r="0.5" fill="#A0D7FF"/>
<circle cx="27.8247" cy="53.0439" r="0.5" fill="#A0D7FF"/>
<circle cx="29.8247" cy="53.0439" r="0.5" fill="#A0D7FF"/>
<circle cx="31.8247" cy="53.0439" r="0.5" fill="#A0D7FF"/>
<circle cx="33.8247" cy="53.0439" r="0.5" fill="#A0D7FF"/>
<circle cx="35.8247" cy="53.0439" r="0.5" fill="#A0D7FF"/>
<circle cx="37.8247" cy="53.0439" r="0.5" fill="#A0D7FF"/>
<circle cx="39.8247" cy="53.0439" r="0.5" fill="#A0D7FF"/>
<circle cx="41.8247" cy="53.0439" r="0.5" fill="#A0D7FF"/>
<circle cx="43.8247" cy="53.0439" r="0.5" fill="#A0D7FF"/>
<circle cx="45.8247" cy="53.0439" r="0.5" fill="#A0D7FF"/>
<circle cx="47.8247" cy="53.0439" r="0.5" fill="#A0D7FF"/>
<circle cx="49.8247" cy="53.0439" r="0.5" fill="#A0D7FF"/>
<circle cx="51.8247" cy="53.0439" r="0.5" fill="#A0D7FF"/>
<circle cx="53.8247" cy="53.0439" r="0.5" fill="#A0D7FF"/>
<circle cx="55.8247" cy="53.0439" r="0.5" fill="#A0D7FF"/>
<circle cx="57.8247" cy="53.0439" r="0.5" fill="#A0D7FF"/>
<circle cx="59.8247" cy="53.0439" r="0.5" fill="#A0D7FF"/>
<circle cx="61.8247" cy="53.0439" r="0.5" fill="#A0D7FF"/>
<circle cx="63.8247" cy="53.0439" r="0.5" fill="#A0D7FF"/>
<circle cx="65.8247" cy="53.0439" r="0.5" fill="#A0D7FF"/>
<circle cx="67.8247" cy="53.0439" r="0.5" fill="#A0D7FF"/>
<circle cx="69.8247" cy="53.0439" r="0.5" fill="#A0D7FF"/>
<circle cx="71.8247" cy="53.0439" r="0.5" fill="#A0D7FF"/>
<circle cx="1.82471" cy="55.0439" r="0.5" fill="#A0D7FF"/>
<circle cx="3.82471" cy="55.0439" r="0.5" fill="#A0D7FF"/>
<circle cx="5.82471" cy="55.0439" r="0.5" fill="#A0D7FF"/>
<circle cx="7.82471" cy="55.0439" r="0.5" fill="#A0D7FF"/>
<circle cx="9.82471" cy="55.0439" r="0.5" fill="#A0D7FF"/>
<circle cx="11.8247" cy="55.0439" r="0.5" fill="#A0D7FF"/>
<circle cx="13.8247" cy="55.0439" r="0.5" fill="#A0D7FF"/>
<circle cx="15.8247" cy="55.0439" r="0.5" fill="#A0D7FF"/>
<circle cx="17.8247" cy="55.0439" r="0.5" fill="#A0D7FF"/>
<circle cx="19.8247" cy="55.0439" r="0.5" fill="#A0D7FF"/>
<circle cx="21.8247" cy="55.0439" r="0.5" fill="#A0D7FF"/>
<circle cx="23.8247" cy="55.0439" r="0.5" fill="#A0D7FF"/>
<circle cx="25.8247" cy="55.0439" r="0.5" fill="#A0D7FF"/>
<circle cx="27.8247" cy="55.0439" r="0.5" fill="#A0D7FF"/>
<circle cx="29.8247" cy="55.0439" r="0.5" fill="#A0D7FF"/>
<circle cx="31.8247" cy="55.0439" r="0.5" fill="#A0D7FF"/>
<circle cx="33.8247" cy="55.0439" r="0.5" fill="#A0D7FF"/>
<circle cx="35.8247" cy="55.0439" r="0.5" fill="#A0D7FF"/>
<circle cx="37.8247" cy="55.0439" r="0.5" fill="#A0D7FF"/>
<circle cx="39.8247" cy="55.0439" r="0.5" fill="#A0D7FF"/>
<circle cx="41.8247" cy="55.0439" r="0.5" fill="#A0D7FF"/>
<circle cx="43.8247" cy="55.0439" r="0.5" fill="#A0D7FF"/>
<circle cx="45.8247" cy="55.0439" r="0.5" fill="#A0D7FF"/>
<circle cx="47.8247" cy="55.0439" r="0.5" fill="#A0D7FF"/>
<circle cx="49.8247" cy="55.0439" r="0.5" fill="#A0D7FF"/>
<circle cx="51.8247" cy="55.0439" r="0.5" fill="#A0D7FF"/>
<circle cx="53.8247" cy="55.0439" r="0.5" fill="#A0D7FF"/>
<circle cx="55.8247" cy="55.0439" r="0.5" fill="#A0D7FF"/>
<circle cx="57.8247" cy="55.0439" r="0.5" fill="#A0D7FF"/>
<circle cx="59.8247" cy="55.0439" r="0.5" fill="#A0D7FF"/>
<circle cx="61.8247" cy="55.0439" r="0.5" fill="#A0D7FF"/>
<circle cx="63.8247" cy="55.0439" r="0.5" fill="#A0D7FF"/>
<circle cx="65.8247" cy="55.0439" r="0.5" fill="#A0D7FF"/>
<circle cx="67.8247" cy="55.0439" r="0.5" fill="#A0D7FF"/>
<circle cx="69.8247" cy="55.0439" r="0.5" fill="#A0D7FF"/>
<circle cx="71.8247" cy="55.0439" r="0.5" fill="#A0D7FF"/>
<circle cx="1.82471" cy="57.0439" r="0.5" fill="#A0D7FF"/>
<circle cx="3.82471" cy="57.0439" r="0.5" fill="#A0D7FF"/>
<circle cx="5.82471" cy="57.0439" r="0.5" fill="#A0D7FF"/>
<circle cx="7.82471" cy="57.0439" r="0.5" fill="#A0D7FF"/>
<circle cx="9.82471" cy="57.0439" r="0.5" fill="#A0D7FF"/>
<circle cx="11.8247" cy="57.0439" r="0.5" fill="#A0D7FF"/>
<circle cx="13.8247" cy="57.0439" r="0.5" fill="#A0D7FF"/>
<circle cx="15.8247" cy="57.0439" r="0.5" fill="#A0D7FF"/>
<circle cx="17.8247" cy="57.0439" r="0.5" fill="#A0D7FF"/>
<circle cx="19.8247" cy="57.0439" r="0.5" fill="#A0D7FF"/>
<circle cx="21.8247" cy="57.0439" r="0.5" fill="#A0D7FF"/>
<circle cx="23.8247" cy="57.0439" r="0.5" fill="#A0D7FF"/>
<circle cx="25.8247" cy="57.0439" r="0.5" fill="#A0D7FF"/>
<circle cx="27.8247" cy="57.0439" r="0.5" fill="#A0D7FF"/>
<circle cx="29.8247" cy="57.0439" r="0.5" fill="#A0D7FF"/>
<circle cx="31.8247" cy="57.0439" r="0.5" fill="#A0D7FF"/>
<circle cx="33.8247" cy="57.0439" r="0.5" fill="#A0D7FF"/>
<circle cx="35.8247" cy="57.0439" r="0.5" fill="#A0D7FF"/>
<circle cx="37.8247" cy="57.0439" r="0.5" fill="#A0D7FF"/>
<circle cx="39.8247" cy="57.0439" r="0.5" fill="#A0D7FF"/>
<circle cx="41.8247" cy="57.0439" r="0.5" fill="#A0D7FF"/>
<circle cx="43.8247" cy="57.0439" r="0.5" fill="#A0D7FF"/>
<circle cx="45.8247" cy="57.0439" r="0.5" fill="#A0D7FF"/>
<circle cx="47.8247" cy="57.0439" r="0.5" fill="#A0D7FF"/>
<circle cx="49.8247" cy="57.0439" r="0.5" fill="#A0D7FF"/>
<circle cx="51.8247" cy="57.0439" r="0.5" fill="#A0D7FF"/>
<circle cx="53.8247" cy="57.0439" r="0.5" fill="#A0D7FF"/>
<circle cx="55.8247" cy="57.0439" r="0.5" fill="#A0D7FF"/>
<circle cx="57.8247" cy="57.0439" r="0.5" fill="#A0D7FF"/>
<circle cx="59.8247" cy="57.0439" r="0.5" fill="#A0D7FF"/>
<circle cx="61.8247" cy="57.0439" r="0.5" fill="#A0D7FF"/>
<circle cx="63.8247" cy="57.0439" r="0.5" fill="#A0D7FF"/>
<circle cx="65.8247" cy="57.0439" r="0.5" fill="#A0D7FF"/>
<circle cx="67.8247" cy="57.0439" r="0.5" fill="#A0D7FF"/>
<circle cx="69.8247" cy="57.0439" r="0.5" fill="#A0D7FF"/>
<circle cx="71.8247" cy="57.0439" r="0.5" fill="#A0D7FF"/>
<circle cx="1.82471" cy="59.0439" r="0.5" fill="#A0D7FF"/>
<circle cx="3.82471" cy="59.0439" r="0.5" fill="#A0D7FF"/>
<circle cx="5.82471" cy="59.0439" r="0.5" fill="#A0D7FF"/>
<circle cx="7.82471" cy="59.0439" r="0.5" fill="#A0D7FF"/>
<circle cx="9.82471" cy="59.0439" r="0.5" fill="#A0D7FF"/>
<circle cx="11.8247" cy="59.0439" r="0.5" fill="#A0D7FF"/>
<circle cx="13.8247" cy="59.0439" r="0.5" fill="#A0D7FF"/>
<circle cx="15.8247" cy="59.0439" r="0.5" fill="#A0D7FF"/>
<circle cx="17.8247" cy="59.0439" r="0.5" fill="#A0D7FF"/>
<circle cx="19.8247" cy="59.0439" r="0.5" fill="#A0D7FF"/>
<circle cx="21.8247" cy="59.0439" r="0.5" fill="#A0D7FF"/>
<circle cx="23.8247" cy="59.0439" r="0.5" fill="#A0D7FF"/>
<circle cx="25.8247" cy="59.0439" r="0.5" fill="#A0D7FF"/>
<circle cx="27.8247" cy="59.0439" r="0.5" fill="#A0D7FF"/>
<circle cx="29.8247" cy="59.0439" r="0.5" fill="#A0D7FF"/>
<circle cx="31.8247" cy="59.0439" r="0.5" fill="#A0D7FF"/>
<circle cx="33.8247" cy="59.0439" r="0.5" fill="#A0D7FF"/>
<circle cx="35.8247" cy="59.0439" r="0.5" fill="#A0D7FF"/>
<circle cx="37.8247" cy="59.0439" r="0.5" fill="#A0D7FF"/>
<circle cx="39.8247" cy="59.0439" r="0.5" fill="#A0D7FF"/>
<circle cx="41.8247" cy="59.0439" r="0.5" fill="#A0D7FF"/>
<circle cx="43.8247" cy="59.0439" r="0.5" fill="#A0D7FF"/>
<circle cx="45.8247" cy="59.0439" r="0.5" fill="#A0D7FF"/>
<circle cx="47.8247" cy="59.0439" r="0.5" fill="#A0D7FF"/>
<circle cx="49.8247" cy="59.0439" r="0.5" fill="#A0D7FF"/>
<circle cx="51.8247" cy="59.0439" r="0.5" fill="#A0D7FF"/>
<circle cx="53.8247" cy="59.0439" r="0.5" fill="#A0D7FF"/>
<circle cx="55.8247" cy="59.0439" r="0.5" fill="#A0D7FF"/>
<circle cx="57.8247" cy="59.0439" r="0.5" fill="#A0D7FF"/>
<circle cx="59.8247" cy="59.0439" r="0.5" fill="#A0D7FF"/>
<circle cx="61.8247" cy="59.0439" r="0.5" fill="#A0D7FF"/>
<circle cx="63.8247" cy="59.0439" r="0.5" fill="#A0D7FF"/>
<circle cx="65.8247" cy="59.0439" r="0.5" fill="#A0D7FF"/>
<circle cx="67.8247" cy="59.0439" r="0.5" fill="#A0D7FF"/>
<circle cx="69.8247" cy="59.0439" r="0.5" fill="#A0D7FF"/>
<circle cx="71.8247" cy="59.0439" r="0.5" fill="#A0D7FF"/>
<circle cx="1.82471" cy="61.0439" r="0.5" fill="#A0D7FF"/>
<circle cx="3.82471" cy="61.0439" r="0.5" fill="#A0D7FF"/>
<circle cx="5.82471" cy="61.0439" r="0.5" fill="#A0D7FF"/>
<circle cx="7.82471" cy="61.0439" r="0.5" fill="#A0D7FF"/>
<circle cx="9.82471" cy="61.0439" r="0.5" fill="#A0D7FF"/>
<circle cx="11.8247" cy="61.0439" r="0.5" fill="#A0D7FF"/>
<circle cx="13.8247" cy="61.0439" r="0.5" fill="#A0D7FF"/>
<circle cx="15.8247" cy="61.0439" r="0.5" fill="#A0D7FF"/>
<circle cx="17.8247" cy="61.0439" r="0.5" fill="#A0D7FF"/>
<circle cx="19.8247" cy="61.0439" r="0.5" fill="#A0D7FF"/>
<circle cx="21.8247" cy="61.0439" r="0.5" fill="#A0D7FF"/>
<circle cx="23.8247" cy="61.0439" r="0.5" fill="#A0D7FF"/>
<circle cx="25.8247" cy="61.0439" r="0.5" fill="#A0D7FF"/>
<circle cx="27.8247" cy="61.0439" r="0.5" fill="#A0D7FF"/>
<circle cx="29.8247" cy="61.0439" r="0.5" fill="#A0D7FF"/>
<circle cx="31.8247" cy="61.0439" r="0.5" fill="#A0D7FF"/>
<circle cx="33.8247" cy="61.0439" r="0.5" fill="#A0D7FF"/>
<circle cx="35.8247" cy="61.0439" r="0.5" fill="#A0D7FF"/>
<circle cx="37.8247" cy="61.0439" r="0.5" fill="#A0D7FF"/>
<circle cx="39.8247" cy="61.0439" r="0.5" fill="#A0D7FF"/>
<circle cx="41.8247" cy="61.0439" r="0.5" fill="#A0D7FF"/>
<circle cx="43.8247" cy="61.0439" r="0.5" fill="#A0D7FF"/>
<circle cx="45.8247" cy="61.0439" r="0.5" fill="#A0D7FF"/>
<circle cx="47.8247" cy="61.0439" r="0.5" fill="#A0D7FF"/>
<circle cx="49.8247" cy="61.0439" r="0.5" fill="#A0D7FF"/>
<circle cx="51.8247" cy="61.0439" r="0.5" fill="#A0D7FF"/>
<circle cx="53.8247" cy="61.0439" r="0.5" fill="#A0D7FF"/>
<circle cx="55.8247" cy="61.0439" r="0.5" fill="#A0D7FF"/>
<circle cx="57.8247" cy="61.0439" r="0.5" fill="#A0D7FF"/>
<circle cx="59.8247" cy="61.0439" r="0.5" fill="#A0D7FF"/>
<circle cx="61.8247" cy="61.0439" r="0.5" fill="#A0D7FF"/>
<circle cx="63.8247" cy="61.0439" r="0.5" fill="#A0D7FF"/>
<circle cx="65.8247" cy="61.0439" r="0.5" fill="#A0D7FF"/>
<circle cx="67.8247" cy="61.0439" r="0.5" fill="#A0D7FF"/>
<circle cx="69.8247" cy="61.0439" r="0.5" fill="#A0D7FF"/>
<circle cx="71.8247" cy="61.0439" r="0.5" fill="#A0D7FF"/>
<circle cx="1.82471" cy="63.0439" r="0.5" fill="#A0D7FF"/>
<circle cx="3.82471" cy="63.0439" r="0.5" fill="#A0D7FF"/>
<circle cx="5.82471" cy="63.0439" r="0.5" fill="#A0D7FF"/>
<circle cx="7.82471" cy="63.0439" r="0.5" fill="#A0D7FF"/>
<circle cx="9.82471" cy="63.0439" r="0.5" fill="#A0D7FF"/>
<circle cx="11.8247" cy="63.0439" r="0.5" fill="#A0D7FF"/>
<circle cx="13.8247" cy="63.0439" r="0.5" fill="#A0D7FF"/>
<circle cx="15.8247" cy="63.0439" r="0.5" fill="#A0D7FF"/>
<circle cx="17.8247" cy="63.0439" r="0.5" fill="#A0D7FF"/>
<circle cx="19.8247" cy="63.0439" r="0.5" fill="#A0D7FF"/>
<circle cx="21.8247" cy="63.0439" r="0.5" fill="#A0D7FF"/>
<circle cx="23.8247" cy="63.0439" r="0.5" fill="#A0D7FF"/>
<circle cx="25.8247" cy="63.0439" r="0.5" fill="#A0D7FF"/>
<circle cx="27.8247" cy="63.0439" r="0.5" fill="#A0D7FF"/>
<circle cx="29.8247" cy="63.0439" r="0.5" fill="#A0D7FF"/>
<circle cx="31.8247" cy="63.0439" r="0.5" fill="#A0D7FF"/>
<circle cx="33.8247" cy="63.0439" r="0.5" fill="#A0D7FF"/>
<circle cx="35.8247" cy="63.0439" r="0.5" fill="#A0D7FF"/>
<circle cx="37.8247" cy="63.0439" r="0.5" fill="#A0D7FF"/>
<circle cx="39.8247" cy="63.0439" r="0.5" fill="#A0D7FF"/>
<circle cx="41.8247" cy="63.0439" r="0.5" fill="#A0D7FF"/>
<circle cx="43.8247" cy="63.0439" r="0.5" fill="#A0D7FF"/>
<circle cx="45.8247" cy="63.0439" r="0.5" fill="#A0D7FF"/>
<circle cx="47.8247" cy="63.0439" r="0.5" fill="#A0D7FF"/>
<circle cx="49.8247" cy="63.0439" r="0.5" fill="#A0D7FF"/>
<circle cx="51.8247" cy="63.0439" r="0.5" fill="#A0D7FF"/>
<circle cx="53.8247" cy="63.0439" r="0.5" fill="#A0D7FF"/>
<circle cx="55.8247" cy="63.0439" r="0.5" fill="#A0D7FF"/>
<circle cx="57.8247" cy="63.0439" r="0.5" fill="#A0D7FF"/>
<circle cx="59.8247" cy="63.0439" r="0.5" fill="#A0D7FF"/>
<circle cx="61.8247" cy="63.0439" r="0.5" fill="#A0D7FF"/>
<circle cx="63.8247" cy="63.0439" r="0.5" fill="#A0D7FF"/>
<circle cx="65.8247" cy="63.0439" r="0.5" fill="#A0D7FF"/>
<circle cx="67.8247" cy="63.0439" r="0.5" fill="#A0D7FF"/>
<circle cx="69.8247" cy="63.0439" r="0.5" fill="#A0D7FF"/>
<circle cx="71.8247" cy="63.0439" r="0.5" fill="#A0D7FF"/>
<circle cx="1.82471" cy="65.0439" r="0.5" fill="#A0D7FF"/>
<circle cx="3.82471" cy="65.0439" r="0.5" fill="#A0D7FF"/>
<circle cx="5.82471" cy="65.0439" r="0.5" fill="#A0D7FF"/>
<circle cx="7.82471" cy="65.0439" r="0.5" fill="#A0D7FF"/>
<circle cx="9.82471" cy="65.0439" r="0.5" fill="#A0D7FF"/>
<circle cx="11.8247" cy="65.0439" r="0.5" fill="#A0D7FF"/>
<circle cx="13.8247" cy="65.0439" r="0.5" fill="#A0D7FF"/>
<circle cx="15.8247" cy="65.0439" r="0.5" fill="#A0D7FF"/>
<circle cx="17.8247" cy="65.0439" r="0.5" fill="#A0D7FF"/>
<circle cx="19.8247" cy="65.0439" r="0.5" fill="#A0D7FF"/>
<circle cx="21.8247" cy="65.0439" r="0.5" fill="#A0D7FF"/>
<circle cx="23.8247" cy="65.0439" r="0.5" fill="#A0D7FF"/>
<circle cx="25.8247" cy="65.0439" r="0.5" fill="#A0D7FF"/>
<circle cx="27.8247" cy="65.0439" r="0.5" fill="#A0D7FF"/>
<circle cx="29.8247" cy="65.0439" r="0.5" fill="#A0D7FF"/>
<circle cx="31.8247" cy="65.0439" r="0.5" fill="#A0D7FF"/>
<circle cx="33.8247" cy="65.0439" r="0.5" fill="#A0D7FF"/>
<circle cx="35.8247" cy="65.0439" r="0.5" fill="#A0D7FF"/>
<circle cx="37.8247" cy="65.0439" r="0.5" fill="#A0D7FF"/>
<circle cx="39.8247" cy="65.0439" r="0.5" fill="#A0D7FF"/>
<circle cx="41.8247" cy="65.0439" r="0.5" fill="#A0D7FF"/>
<circle cx="43.8247" cy="65.0439" r="0.5" fill="#A0D7FF"/>
<circle cx="45.8247" cy="65.0439" r="0.5" fill="#A0D7FF"/>
<circle cx="47.8247" cy="65.0439" r="0.5" fill="#A0D7FF"/>
<circle cx="49.8247" cy="65.0439" r="0.5" fill="#A0D7FF"/>
<circle cx="51.8247" cy="65.0439" r="0.5" fill="#A0D7FF"/>
<circle cx="53.8247" cy="65.0439" r="0.5" fill="#A0D7FF"/>
<circle cx="55.8247" cy="65.0439" r="0.5" fill="#A0D7FF"/>
<circle cx="57.8247" cy="65.0439" r="0.5" fill="#A0D7FF"/>
<circle cx="59.8247" cy="65.0439" r="0.5" fill="#A0D7FF"/>
<circle cx="61.8247" cy="65.0439" r="0.5" fill="#A0D7FF"/>
<circle cx="63.8247" cy="65.0439" r="0.5" fill="#A0D7FF"/>
<circle cx="65.8247" cy="65.0439" r="0.5" fill="#A0D7FF"/>
<circle cx="67.8247" cy="65.0439" r="0.5" fill="#A0D7FF"/>
<circle cx="69.8247" cy="65.0439" r="0.5" fill="#A0D7FF"/>
<circle cx="71.8247" cy="65.0439" r="0.5" fill="#A0D7FF"/>
<circle cx="1.82471" cy="67.0439" r="0.5" fill="#A0D7FF"/>
<circle cx="3.82471" cy="67.0439" r="0.5" fill="#A0D7FF"/>
<circle cx="5.82471" cy="67.0439" r="0.5" fill="#A0D7FF"/>
<circle cx="7.82471" cy="67.0439" r="0.5" fill="#A0D7FF"/>
<circle cx="9.82471" cy="67.0439" r="0.5" fill="#A0D7FF"/>
<circle cx="11.8247" cy="67.0439" r="0.5" fill="#A0D7FF"/>
<circle cx="13.8247" cy="67.0439" r="0.5" fill="#A0D7FF"/>
<circle cx="15.8247" cy="67.0439" r="0.5" fill="#A0D7FF"/>
<circle cx="17.8247" cy="67.0439" r="0.5" fill="#A0D7FF"/>
<circle cx="19.8247" cy="67.0439" r="0.5" fill="#A0D7FF"/>
<circle cx="21.8247" cy="67.0439" r="0.5" fill="#A0D7FF"/>
<circle cx="23.8247" cy="67.0439" r="0.5" fill="#A0D7FF"/>
<circle cx="25.8247" cy="67.0439" r="0.5" fill="#A0D7FF"/>
<circle cx="27.8247" cy="67.0439" r="0.5" fill="#A0D7FF"/>
<circle cx="29.8247" cy="67.0439" r="0.5" fill="#A0D7FF"/>
<circle cx="31.8247" cy="67.0439" r="0.5" fill="#A0D7FF"/>
<circle cx="33.8247" cy="67.0439" r="0.5" fill="#A0D7FF"/>
<circle cx="35.8247" cy="67.0439" r="0.5" fill="#A0D7FF"/>
<circle cx="37.8247" cy="67.0439" r="0.5" fill="#A0D7FF"/>
<circle cx="39.8247" cy="67.0439" r="0.5" fill="#A0D7FF"/>
<circle cx="41.8247" cy="67.0439" r="0.5" fill="#A0D7FF"/>
<circle cx="43.8247" cy="67.0439" r="0.5" fill="#A0D7FF"/>
<circle cx="45.8247" cy="67.0439" r="0.5" fill="#A0D7FF"/>
<circle cx="47.8247" cy="67.0439" r="0.5" fill="#A0D7FF"/>
<circle cx="49.8247" cy="67.0439" r="0.5" fill="#A0D7FF"/>
<circle cx="51.8247" cy="67.0439" r="0.5" fill="#A0D7FF"/>
<circle cx="53.8247" cy="67.0439" r="0.5" fill="#A0D7FF"/>
<circle cx="55.8247" cy="67.0439" r="0.5" fill="#A0D7FF"/>
<circle cx="57.8247" cy="67.0439" r="0.5" fill="#A0D7FF"/>
<circle cx="59.8247" cy="67.0439" r="0.5" fill="#A0D7FF"/>
<circle cx="61.8247" cy="67.0439" r="0.5" fill="#A0D7FF"/>
<circle cx="63.8247" cy="67.0439" r="0.5" fill="#A0D7FF"/>
<circle cx="65.8247" cy="67.0439" r="0.5" fill="#A0D7FF"/>
<circle cx="67.8247" cy="67.0439" r="0.5" fill="#A0D7FF"/>
<circle cx="69.8247" cy="67.0439" r="0.5" fill="#A0D7FF"/>
<circle cx="71.8247" cy="67.0439" r="0.5" fill="#A0D7FF"/>
<circle cx="1.82471" cy="69.0439" r="0.5" fill="#A0D7FF"/>
<circle cx="3.82471" cy="69.0439" r="0.5" fill="#A0D7FF"/>
<circle cx="5.82471" cy="69.0439" r="0.5" fill="#A0D7FF"/>
<circle cx="7.82471" cy="69.0439" r="0.5" fill="#A0D7FF"/>
<circle cx="9.82471" cy="69.0439" r="0.5" fill="#A0D7FF"/>
<circle cx="11.8247" cy="69.0439" r="0.5" fill="#A0D7FF"/>
<circle cx="13.8247" cy="69.0439" r="0.5" fill="#A0D7FF"/>
<circle cx="15.8247" cy="69.0439" r="0.5" fill="#A0D7FF"/>
<circle cx="17.8247" cy="69.0439" r="0.5" fill="#A0D7FF"/>
<circle cx="19.8247" cy="69.0439" r="0.5" fill="#A0D7FF"/>
<circle cx="21.8247" cy="69.0439" r="0.5" fill="#A0D7FF"/>
<circle cx="23.8247" cy="69.0439" r="0.5" fill="#A0D7FF"/>
<circle cx="25.8247" cy="69.0439" r="0.5" fill="#A0D7FF"/>
<circle cx="27.8247" cy="69.0439" r="0.5" fill="#A0D7FF"/>
<circle cx="29.8247" cy="69.0439" r="0.5" fill="#A0D7FF"/>
<circle cx="31.8247" cy="69.0439" r="0.5" fill="#A0D7FF"/>
<circle cx="33.8247" cy="69.0439" r="0.5" fill="#A0D7FF"/>
<circle cx="35.8247" cy="69.0439" r="0.5" fill="#A0D7FF"/>
<circle cx="37.8247" cy="69.0439" r="0.5" fill="#A0D7FF"/>
<circle cx="39.8247" cy="69.0439" r="0.5" fill="#A0D7FF"/>
<circle cx="41.8247" cy="69.0439" r="0.5" fill="#A0D7FF"/>
<circle cx="43.8247" cy="69.0439" r="0.5" fill="#A0D7FF"/>
<circle cx="45.8247" cy="69.0439" r="0.5" fill="#A0D7FF"/>
<circle cx="47.8247" cy="69.0439" r="0.5" fill="#A0D7FF"/>
<circle cx="49.8247" cy="69.0439" r="0.5" fill="#A0D7FF"/>
<circle cx="51.8247" cy="69.0439" r="0.5" fill="#A0D7FF"/>
<circle cx="53.8247" cy="69.0439" r="0.5" fill="#A0D7FF"/>
<circle cx="55.8247" cy="69.0439" r="0.5" fill="#A0D7FF"/>
<circle cx="57.8247" cy="69.0439" r="0.5" fill="#A0D7FF"/>
<circle cx="59.8247" cy="69.0439" r="0.5" fill="#A0D7FF"/>
<circle cx="61.8247" cy="69.0439" r="0.5" fill="#A0D7FF"/>
<circle cx="63.8247" cy="69.0439" r="0.5" fill="#A0D7FF"/>
<circle cx="65.8247" cy="69.0439" r="0.5" fill="#A0D7FF"/>
<circle cx="67.8247" cy="69.0439" r="0.5" fill="#A0D7FF"/>
<circle cx="69.8247" cy="69.0439" r="0.5" fill="#A0D7FF"/>
<circle cx="71.8247" cy="69.0439" r="0.5" fill="#A0D7FF"/>
<circle cx="1.82471" cy="71.0439" r="0.5" fill="#A0D7FF"/>
<circle cx="3.82471" cy="71.0439" r="0.5" fill="#A0D7FF"/>
<circle cx="5.82471" cy="71.0439" r="0.5" fill="#A0D7FF"/>
<circle cx="7.82471" cy="71.0439" r="0.5" fill="#A0D7FF"/>
<circle cx="9.82471" cy="71.0439" r="0.5" fill="#A0D7FF"/>
<circle cx="11.8247" cy="71.0439" r="0.5" fill="#A0D7FF"/>
<circle cx="13.8247" cy="71.0439" r="0.5" fill="#A0D7FF"/>
<circle cx="15.8247" cy="71.0439" r="0.5" fill="#A0D7FF"/>
<circle cx="17.8247" cy="71.0439" r="0.5" fill="#A0D7FF"/>
<circle cx="19.8247" cy="71.0439" r="0.5" fill="#A0D7FF"/>
<circle cx="21.8247" cy="71.0439" r="0.5" fill="#A0D7FF"/>
<circle cx="23.8247" cy="71.0439" r="0.5" fill="#A0D7FF"/>
<circle cx="25.8247" cy="71.0439" r="0.5" fill="#A0D7FF"/>
<circle cx="27.8247" cy="71.0439" r="0.5" fill="#A0D7FF"/>
<circle cx="29.8247" cy="71.0439" r="0.5" fill="#A0D7FF"/>
<circle cx="31.8247" cy="71.0439" r="0.5" fill="#A0D7FF"/>
<circle cx="33.8247" cy="71.0439" r="0.5" fill="#A0D7FF"/>
<circle cx="35.8247" cy="71.0439" r="0.5" fill="#A0D7FF"/>
<circle cx="37.8247" cy="71.0439" r="0.5" fill="#A0D7FF"/>
<circle cx="39.8247" cy="71.0439" r="0.5" fill="#A0D7FF"/>
<circle cx="41.8247" cy="71.0439" r="0.5" fill="#A0D7FF"/>
<circle cx="43.8247" cy="71.0439" r="0.5" fill="#A0D7FF"/>
<circle cx="45.8247" cy="71.0439" r="0.5" fill="#A0D7FF"/>
<circle cx="47.8247" cy="71.0439" r="0.5" fill="#A0D7FF"/>
<circle cx="49.8247" cy="71.0439" r="0.5" fill="#A0D7FF"/>
<circle cx="51.8247" cy="71.0439" r="0.5" fill="#A0D7FF"/>
<circle cx="53.8247" cy="71.0439" r="0.5" fill="#A0D7FF"/>
<circle cx="55.8247" cy="71.0439" r="0.5" fill="#A0D7FF"/>
<circle cx="57.8247" cy="71.0439" r="0.5" fill="#A0D7FF"/>
<circle cx="59.8247" cy="71.0439" r="0.5" fill="#A0D7FF"/>
<circle cx="61.8247" cy="71.0439" r="0.5" fill="#A0D7FF"/>
<circle cx="63.8247" cy="71.0439" r="0.5" fill="#A0D7FF"/>
<circle cx="65.8247" cy="71.0439" r="0.5" fill="#A0D7FF"/>
<circle cx="67.8247" cy="71.0439" r="0.5" fill="#A0D7FF"/>
<circle cx="69.8247" cy="71.0439" r="0.5" fill="#A0D7FF"/>
<circle cx="71.8247" cy="71.0439" r="0.5" fill="#A0D7FF"/>
<circle cx="1.82471" cy="73.0439" r="0.5" fill="#A0D7FF"/>
<circle cx="3.82471" cy="73.0439" r="0.5" fill="#A0D7FF"/>
<circle cx="5.82471" cy="73.0439" r="0.5" fill="#A0D7FF"/>
<circle cx="7.82471" cy="73.0439" r="0.5" fill="#A0D7FF"/>
<circle cx="9.82471" cy="73.0439" r="0.5" fill="#A0D7FF"/>
<circle cx="11.8247" cy="73.0439" r="0.5" fill="#A0D7FF"/>
<circle cx="13.8247" cy="73.0439" r="0.5" fill="#A0D7FF"/>
<circle cx="15.8247" cy="73.0439" r="0.5" fill="#A0D7FF"/>
<circle cx="17.8247" cy="73.0439" r="0.5" fill="#A0D7FF"/>
<circle cx="19.8247" cy="73.0439" r="0.5" fill="#A0D7FF"/>
<circle cx="21.8247" cy="73.0439" r="0.5" fill="#A0D7FF"/>
<circle cx="23.8247" cy="73.0439" r="0.5" fill="#A0D7FF"/>
<circle cx="25.8247" cy="73.0439" r="0.5" fill="#A0D7FF"/>
<circle cx="27.8247" cy="73.0439" r="0.5" fill="#A0D7FF"/>
<circle cx="29.8247" cy="73.0439" r="0.5" fill="#A0D7FF"/>
<circle cx="31.8247" cy="73.0439" r="0.5" fill="#A0D7FF"/>
<circle cx="33.8247" cy="73.0439" r="0.5" fill="#A0D7FF"/>
<circle cx="35.8247" cy="73.0439" r="0.5" fill="#A0D7FF"/>
<circle cx="37.8247" cy="73.0439" r="0.5" fill="#A0D7FF"/>
<circle cx="39.8247" cy="73.0439" r="0.5" fill="#A0D7FF"/>
<circle cx="41.8247" cy="73.0439" r="0.5" fill="#A0D7FF"/>
<circle cx="43.8247" cy="73.0439" r="0.5" fill="#A0D7FF"/>
<circle cx="45.8247" cy="73.0439" r="0.5" fill="#A0D7FF"/>
<circle cx="47.8247" cy="73.0439" r="0.5" fill="#A0D7FF"/>
<circle cx="49.8247" cy="73.0439" r="0.5" fill="#A0D7FF"/>
<circle cx="51.8247" cy="73.0439" r="0.5" fill="#A0D7FF"/>
<circle cx="53.8247" cy="73.0439" r="0.5" fill="#A0D7FF"/>
<circle cx="55.8247" cy="73.0439" r="0.5" fill="#A0D7FF"/>
<circle cx="57.8247" cy="73.0439" r="0.5" fill="#A0D7FF"/>
<circle cx="59.8247" cy="73.0439" r="0.5" fill="#A0D7FF"/>
<circle cx="61.8247" cy="73.0439" r="0.5" fill="#A0D7FF"/>
<circle cx="63.8247" cy="73.0439" r="0.5" fill="#A0D7FF"/>
<circle cx="65.8247" cy="73.0439" r="0.5" fill="#A0D7FF"/>
<circle cx="67.8247" cy="73.0439" r="0.5" fill="#A0D7FF"/>
<circle cx="69.8247" cy="73.0439" r="0.5" fill="#A0D7FF"/>
<circle cx="71.8247" cy="73.0439" r="0.5" fill="#A0D7FF"/>
<circle cx="1.82471" cy="75.0439" r="0.5" fill="#A0D7FF"/>
<circle cx="3.82471" cy="75.0439" r="0.5" fill="#A0D7FF"/>
<circle cx="5.82471" cy="75.0439" r="0.5" fill="#A0D7FF"/>
<circle cx="7.82471" cy="75.0439" r="0.5" fill="#A0D7FF"/>
<circle cx="9.82471" cy="75.0439" r="0.5" fill="#A0D7FF"/>
<circle cx="11.8247" cy="75.0439" r="0.5" fill="#A0D7FF"/>
<circle cx="13.8247" cy="75.0439" r="0.5" fill="#A0D7FF"/>
<circle cx="15.8247" cy="75.0439" r="0.5" fill="#A0D7FF"/>
<circle cx="17.8247" cy="75.0439" r="0.5" fill="#A0D7FF"/>
<circle cx="19.8247" cy="75.0439" r="0.5" fill="#A0D7FF"/>
<circle cx="21.8247" cy="75.0439" r="0.5" fill="#A0D7FF"/>
<circle cx="23.8247" cy="75.0439" r="0.5" fill="#A0D7FF"/>
<circle cx="25.8247" cy="75.0439" r="0.5" fill="#A0D7FF"/>
<circle cx="27.8247" cy="75.0439" r="0.5" fill="#A0D7FF"/>
<circle cx="29.8247" cy="75.0439" r="0.5" fill="#A0D7FF"/>
<circle cx="31.8247" cy="75.0439" r="0.5" fill="#A0D7FF"/>
<circle cx="33.8247" cy="75.0439" r="0.5" fill="#A0D7FF"/>
<circle cx="35.8247" cy="75.0439" r="0.5" fill="#A0D7FF"/>
<circle cx="37.8247" cy="75.0439" r="0.5" fill="#A0D7FF"/>
<circle cx="39.8247" cy="75.0439" r="0.5" fill="#A0D7FF"/>
<circle cx="41.8247" cy="75.0439" r="0.5" fill="#A0D7FF"/>
<circle cx="43.8247" cy="75.0439" r="0.5" fill="#A0D7FF"/>
<circle cx="45.8247" cy="75.0439" r="0.5" fill="#A0D7FF"/>
<circle cx="47.8247" cy="75.0439" r="0.5" fill="#A0D7FF"/>
<circle cx="49.8247" cy="75.0439" r="0.5" fill="#A0D7FF"/>
<circle cx="51.8247" cy="75.0439" r="0.5" fill="#A0D7FF"/>
<circle cx="53.8247" cy="75.0439" r="0.5" fill="#A0D7FF"/>
<circle cx="55.8247" cy="75.0439" r="0.5" fill="#A0D7FF"/>
<circle cx="57.8247" cy="75.0439" r="0.5" fill="#A0D7FF"/>
<circle cx="59.8247" cy="75.0439" r="0.5" fill="#A0D7FF"/>
<circle cx="61.8247" cy="75.0439" r="0.5" fill="#A0D7FF"/>
<circle cx="63.8247" cy="75.0439" r="0.5" fill="#A0D7FF"/>
<circle cx="65.8247" cy="75.0439" r="0.5" fill="#A0D7FF"/>
<circle cx="67.8247" cy="75.0439" r="0.5" fill="#A0D7FF"/>
<circle cx="69.8247" cy="75.0439" r="0.5" fill="#A0D7FF"/>
<circle cx="71.8247" cy="75.0439" r="0.5" fill="#A0D7FF"/>
</g>
</g>
<rect x="36.5781" y="0.75" width="14.2278" height="8.32868" stroke="#A0D7FF" stroke-width="1.5"/>
<rect x="8.07031" y="64.8369" width="7.52746" height="3.5441" transform="rotate(-90 8.07031 64.8369)" stroke="#A0D7FF" stroke-width="1.5"/>
<rect x="62.0298" y="64.8369" width="7.52746" height="3.5441" transform="rotate(-90 62.0298 64.8369)" stroke="#A0D7FF" stroke-width="1.5"/>
<rect x="8.07031" y="50.8125" width="7.49414" height="3.5441" transform="rotate(-90 8.07031 50.8125)" stroke="#A0D7FF" stroke-width="1.5"/>
<rect x="62.0298" y="50.8125" width="7.49414" height="3.5441" transform="rotate(-90 62.0298 50.8125)" stroke="#A0D7FF" stroke-width="1.5"/>
<path d="M22.1624 33.6963C22.1625 25.3227 28.9509 18.5342 37.3245 18.5342C45.6979 18.5343 52.4855 25.3228 52.4856 33.6963L52.4856 73.8984L22.1624 73.8984L22.1624 33.6963Z" fill="#00323C" stroke="#A0D7FF" stroke-width="1.5"/>
<rect x="32.9062" y="73.8984" width="30.5801" height="8.32868" transform="rotate(-90 32.9062 73.8984)" stroke="#A0D7FF" stroke-width="1.5"/>
<path d="M21.4141 35.0322L53.2453 35.0322" stroke="#A0D7FF" stroke-width="1.5"/>
<defs>
<clipPath id="clip0_732_6921">
<rect width="72" height="90" fill="white" transform="translate(1.32471 18.5439)"/>
</clipPath>
</defs>
</svg>
